<svg width="1024" height="1024" viewBox="0 0 1024 1024" fill="none" xmlns="http://www.w3.org/2000/svg">
    <rect width="1024" height="1024" fill="#0B88DB"/>
    <path fill-rule="evenodd" clip-rule="evenodd" d="M776.058 433.253C769.276 433.258 762.504 433.654 755.77 434.434C755.527 434.459 755.286 434.485 755.044 434.512C736.112 372.897 679.25 330.79 614.773 330.658C598.722 330.641 582.786 333.306 567.618 338.529C530.068 257.362 441.079 213.25 353.724 232.5C266.358 251.756 204.178 329.173 204.242 418.595C204.247 434.049 206.174 449.441 209.953 464.415C126.722 477.118 67.2543 551.686 73.4418 635.628C79.618 719.575 149.367 784.644 233.562 785.017H776.058C810.327 785.017 842.307 775.223 869.351 758.282C899.156 741.94 922.47 716.144 934.73 685.22C945.799 662.194 952 636.387 952 609.132C952 511.994 873.23 433.253 776.058 433.253ZM502.874 755.701H528.427C522.797 754.53 517.247 753.267 511.784 751.916C508.866 753.266 505.895 754.529 502.874 755.701Z" fill="white"/>
    <path fill-rule="evenodd" clip-rule="evenodd" d="M245.165 90.2168C243.475 90.2182 241.788 90.3169 240.11 90.5117C240.05 90.518 239.989 90.5244 239.929 90.531C235.212 75.155 221.045 64.6471 204.981 64.6142C200.982 64.6099 197.011 65.2751 193.232 66.5783C183.877 46.3231 161.706 35.3149 139.942 40.1188C118.175 44.924 102.683 64.2436 102.698 86.5589C102.7 90.4157 103.18 94.2567 104.121 97.9933C83.3846 101.163 68.5685 119.772 70.1101 140.72C71.6488 161.669 89.0267 177.907 110.004 178H245.165C253.703 178 261.67 175.556 268.408 171.328C275.834 167.25 281.643 160.813 284.697 153.095C287.455 147.349 289 140.909 289 134.108C289 109.867 269.375 90.2168 245.165 90.2168ZM177.102 170.684H183.468C182.065 170.392 180.683 170.077 179.322 169.74C178.595 170.077 177.854 170.392 177.102 170.684Z" fill="white"/>
    <path fill-rule="evenodd" clip-rule="evenodd" d="M960.373 282.426C959.077 282.427 957.782 282.503 956.495 282.653C956.449 282.658 956.403 282.663 956.357 282.668C952.738 270.832 941.87 262.743 929.547 262.717C926.479 262.714 923.433 263.226 920.534 264.229C913.358 248.637 896.35 240.163 879.654 243.861C862.956 247.56 851.072 262.432 851.084 279.61C851.085 282.579 851.453 285.536 852.175 288.412C836.268 290.852 824.902 305.177 826.084 321.302C827.265 337.428 840.596 349.928 856.688 350H960.373C966.923 350 973.035 348.119 978.204 344.864C983.9 341.725 988.356 336.769 990.699 330.829C992.815 326.406 994 321.448 994 316.212C994 297.552 978.945 282.426 960.373 282.426ZM908.16 344.368H913.044C911.968 344.143 910.907 343.901 909.863 343.641C909.305 343.901 908.738 344.143 908.16 344.368Z" fill="white"/>
    <path fill-rule="evenodd" clip-rule="evenodd" d="M339.373 925.426C338.077 925.427 336.782 925.503 335.495 925.653C335.449 925.658 335.403 925.663 335.357 925.668C331.738 913.832 320.87 905.743 308.547 905.717C305.479 905.714 302.433 906.226 299.534 907.229C292.358 891.637 275.35 883.163 258.654 886.861C241.956 890.56 230.072 905.432 230.084 922.61C230.085 925.579 230.453 928.536 231.175 931.412C215.268 933.852 203.902 948.177 205.084 964.302C206.265 980.428 219.596 992.928 235.688 993H339.373C345.923 993 352.035 991.119 357.204 987.864C362.9 984.725 367.356 979.769 369.699 973.829C371.815 969.406 373 964.448 373 959.212C373 940.552 357.945 925.426 339.373 925.426ZM287.16 987.368H292.044C290.968 987.143 289.907 986.901 288.863 986.641C288.305 986.901 287.738 987.143 287.16 987.368Z" fill="white"/>
    <path d="M723.381 451.916H703.602V711.349C703.602 711.349 677.009 719.094 614.184 700.161C571.824 687.395 540.136 702.797 523.985 714.187C520.549 716.609 516.467 720.615 512.264 720.615H512.001H511.738C507.535 720.615 503.453 716.61 500.018 714.188C483.866 702.798 452.178 687.395 409.818 700.161C346.993 719.094 320.4 711.349 320.4 711.349V451.916H300.62C295.307 451.916 291 456.223 291 461.536V732.024C291 737.337 295.308 741.644 300.62 741.644H473.443C478.542 741.644 483.279 744.497 485.458 749.107C490.157 759.049 500.273 765.929 512 765.929C523.727 765.929 533.843 759.049 538.542 749.107C540.721 744.497 545.458 741.644 550.557 741.644H723.38C728.693 741.644 733 737.337 733 732.024V461.536C733.002 456.223 728.694 451.916 723.381 451.916Z" fill="#0B88DB"/>
    <path d="M340.211 732.023V712.888C326.64 713.165 320.402 711.349 320.402 711.349V451.916H300.62C295.307 451.916 291 456.223 291 461.536V732.024C291 737.337 295.307 741.644 300.62 741.644H349.831C344.518 741.644 340.211 737.337 340.211 732.023Z" fill="#0070BB"/>
    <path d="M697.676 431.212C684.861 432.24 657.5 431.868 614.183 418.814C551.358 399.879 512.001 442.911 512.001 442.911L505.146 451.916V711.065L512.001 720.264V720.616H512.263C516.467 720.616 520.549 719.278 523.984 716.856C540.135 705.466 571.823 690.064 614.183 702.83C677.008 721.764 706.269 714.018 706.269 714.018V439.16C706.269 434.509 702.312 430.839 697.676 431.212V431.212Z" fill="#DDEEFF"/>
    <path d="M538.094 424.46C521.309 432.737 512.001 442.911 512.001 442.911L505.146 451.916V711.065L512.001 720.264V720.616H512.263C516.467 720.616 520.549 719.278 523.984 716.856C527.827 714.146 532.558 711.212 538.094 708.481V424.46Z" fill="#D2E8FC"/>
    <path d="M675.248 483.738C675.076 483.738 674.904 483.732 674.73 483.718C656.039 482.283 635.021 478.078 612.258 471.218C589.103 464.238 566.697 465.287 545.662 474.329C542.277 475.785 538.355 474.219 536.9 470.835C535.445 467.45 537.009 463.528 540.393 462.073C564.392 451.758 589.865 450.539 616.106 458.446C637.949 465.029 658.017 469.057 675.75 470.418C679.424 470.7 682.172 473.906 681.89 477.579C681.622 481.078 678.7 483.738 675.248 483.738V483.738Z" fill="#8BCAFF"/>
    <path d="M675.248 512.086C675.076 512.086 674.904 512.08 674.73 512.066C656.043 510.633 635.025 506.427 612.258 499.565C589.103 492.587 566.697 493.634 545.662 502.677C542.277 504.131 538.355 502.567 536.9 499.183C535.445 495.798 537.009 491.875 540.393 490.421C564.392 480.105 589.865 478.886 616.106 486.794C637.954 493.378 658.021 497.406 675.75 498.766C679.423 499.048 682.172 502.253 681.89 505.926C681.623 509.426 678.7 512.086 675.248 512.086V512.086Z" fill="#8BCAFF"/>
    <path d="M675.248 653.827C675.076 653.827 674.904 653.821 674.73 653.807C656.038 652.372 635.02 648.166 612.258 641.306C589.103 634.329 566.698 635.376 545.662 644.418C542.277 645.873 538.355 644.307 536.9 640.924C535.445 637.539 537.009 633.616 540.393 632.162C564.392 621.846 589.865 620.626 616.106 628.534C637.949 635.118 658.016 639.146 675.75 640.507C679.424 640.789 682.172 643.995 681.89 647.668C681.622 651.167 678.7 653.827 675.248 653.827V653.827Z" fill="#8BCAFF"/>
    <path d="M675.248 682.175C675.076 682.175 674.904 682.169 674.73 682.155C656.039 680.721 635.021 676.516 612.258 669.655C589.103 662.676 566.697 663.724 545.662 672.766C542.277 674.221 538.355 672.656 536.9 669.273C535.445 665.888 537.009 661.965 540.393 660.51C564.392 650.195 589.865 648.976 616.106 656.884C637.949 663.466 658.017 667.494 675.75 668.856C679.424 669.137 682.172 672.343 681.89 676.017C681.622 679.515 678.7 682.175 675.248 682.175V682.175Z" fill="#8BCAFF"/>
    <path d="M675.248 540.434C675.076 540.434 674.904 540.428 674.73 540.415C656.038 538.98 635.02 534.774 612.258 527.913C589.103 520.936 566.698 521.983 545.662 531.025C542.277 532.48 538.355 530.915 536.9 527.532C535.445 524.147 537.009 520.224 540.393 518.769C564.392 508.454 589.865 507.233 616.106 515.142C637.949 521.725 658.016 525.753 675.75 527.115C679.424 527.396 682.172 530.602 681.89 534.276C681.622 537.775 678.7 540.434 675.248 540.434V540.434Z" fill="#8BCAFF"/>
    <path d="M675.248 597.131C675.077 597.131 674.904 597.124 674.731 597.112C656.044 595.678 635.026 591.472 612.258 584.61C589.103 577.632 566.698 578.68 545.663 587.722C542.278 589.177 538.356 587.611 536.9 584.228C535.446 580.843 537.01 576.92 540.394 575.466C564.393 565.15 589.866 563.93 616.107 571.839C637.955 578.423 658.022 582.451 675.75 583.81C679.424 584.092 682.172 587.298 681.891 590.971C681.623 594.469 678.7 597.131 675.248 597.131V597.131Z" fill="#8BCAFF"/>
    <path d="M675.248 568.783C675.076 568.783 674.904 568.777 674.73 568.763C656.039 567.328 635.021 563.123 612.258 556.263C589.104 549.285 566.699 550.33 545.662 559.374C542.277 560.828 538.355 559.263 536.9 555.88C535.445 552.495 537.009 548.572 540.393 547.118C564.392 536.802 589.865 535.582 616.106 543.491C637.949 550.074 658.017 554.102 675.75 555.463C679.423 555.745 682.172 558.951 681.889 562.624C681.622 566.122 678.7 568.783 675.248 568.783V568.783Z" fill="#8BCAFF"/>
    <path d="M675.248 625.478C675.077 625.478 674.904 625.472 674.731 625.459C656.041 624.025 635.022 619.819 612.258 612.958C589.104 605.98 566.698 607.027 545.663 616.07C542.278 617.526 538.356 615.96 536.9 612.576C535.446 609.191 537.01 605.269 540.394 603.814C564.393 593.499 589.866 592.277 616.107 600.187C637.951 606.77 658.018 610.798 675.75 612.158C679.424 612.44 682.172 615.645 681.891 619.319C681.623 622.818 678.7 625.478 675.248 625.478V625.478Z" fill="#8BCAFF"/>
    <path d="M326.326 431.212C339.141 432.24 366.502 431.868 409.819 418.814C472.644 399.879 512.001 442.911 512.001 442.911V720.616H511.738C507.535 720.616 503.453 719.278 500.017 716.856C483.866 705.466 452.178 690.064 409.818 702.829C346.993 721.763 317.732 714.018 317.732 714.018V439.16C317.732 434.509 321.69 430.839 326.326 431.212V431.212Z" fill="#DDEEFF"/>
    <path d="M347.081 431.173C338.049 431.786 331.154 431.598 326.326 431.211C321.69 430.839 317.733 434.509 317.733 439.16V714.017C317.733 714.017 327.261 716.529 347.081 715.185V431.173Z" fill="#D2E8FC"/>
    <path d="M348.754 483.738C345.302 483.738 342.379 481.078 342.111 477.579C341.829 473.905 344.578 470.699 348.251 470.418C365.984 469.056 386.051 465.028 407.895 458.446C434.137 450.536 459.61 451.757 483.608 462.072C486.992 463.527 488.556 467.45 487.101 470.835C485.647 474.219 481.724 475.782 478.339 474.328C457.304 465.285 434.898 464.24 411.743 471.217C388.981 478.077 367.963 482.283 349.271 483.717C349.098 483.732 348.925 483.738 348.754 483.738Z" fill="#8BCAFF"/>
    <path d="M348.754 512.086C345.301 512.086 342.378 509.425 342.111 505.925C341.829 502.252 344.578 499.047 348.251 498.765C365.981 497.406 386.048 493.378 407.895 486.793C434.137 478.884 459.61 480.105 483.607 490.42C486.991 491.875 488.556 495.797 487.101 499.182C485.646 502.567 481.724 504.131 478.339 502.676C457.304 493.632 434.898 492.589 411.743 499.565C388.976 506.426 367.957 510.632 349.271 512.065C349.097 512.08 348.925 512.086 348.754 512.086V512.086Z" fill="#8BCAFF"/>
    <path d="M348.754 653.827C345.302 653.827 342.379 651.166 342.111 647.667C341.829 643.994 344.578 640.788 348.251 640.506C365.985 639.145 386.052 635.117 407.894 628.533C434.135 620.626 459.609 621.845 483.607 632.161C486.991 633.615 488.555 637.538 487.1 640.923C485.646 644.307 481.723 645.872 478.338 644.417C457.303 635.375 434.897 634.327 411.743 641.305C388.981 648.165 367.963 652.371 349.27 653.806C349.098 653.821 348.925 653.827 348.754 653.827Z" fill="#8BCAFF"/>
    <path d="M348.754 682.175C345.302 682.175 342.379 679.515 342.111 676.016C341.829 672.342 344.578 669.136 348.251 668.855C365.984 667.493 386.051 663.465 407.895 656.883C434.137 648.973 459.61 650.194 483.608 660.509C486.992 661.964 488.556 665.887 487.101 669.272C485.647 672.657 481.724 674.219 478.339 672.765C457.304 663.722 434.898 662.678 411.743 669.654C388.981 676.515 367.963 680.72 349.271 682.154C349.098 682.168 348.925 682.175 348.754 682.175V682.175Z" fill="#8BCAFF"/>
    <path d="M348.754 540.434C345.302 540.434 342.379 537.774 342.111 534.275C341.829 530.601 344.578 527.395 348.251 527.114C365.985 525.752 386.052 521.724 407.894 515.141C434.135 507.233 459.609 508.453 483.607 518.768C486.991 520.223 488.555 524.146 487.1 527.531C485.646 530.915 481.723 532.479 478.338 531.024C457.303 521.982 434.897 520.934 411.743 527.912C388.981 534.773 367.963 538.979 349.27 540.414C349.098 540.428 348.925 540.434 348.754 540.434V540.434Z" fill="#8BCAFF"/>
    <path d="M348.754 597.13C345.301 597.13 342.378 594.47 342.111 590.97C341.829 587.297 344.578 584.091 348.251 583.809C365.981 582.45 386.048 578.422 407.895 571.838C434.137 563.928 459.61 565.149 483.607 575.465C486.991 576.919 488.556 580.842 487.101 584.227C485.646 587.612 481.724 589.176 478.339 587.721C457.304 578.677 434.898 577.633 411.743 584.609C388.976 591.471 367.957 595.677 349.271 597.111C349.097 597.124 348.925 597.13 348.754 597.13Z" fill="#8BCAFF"/>
    <path d="M348.754 568.783C345.302 568.783 342.379 566.123 342.111 562.623C341.829 558.95 344.578 555.744 348.251 555.462C365.984 554.101 386.051 550.073 407.895 543.49C434.136 535.581 459.61 536.801 483.608 547.117C486.992 548.572 488.556 552.494 487.101 555.879C485.647 559.264 481.724 560.828 478.339 559.373C457.303 550.329 434.898 549.285 411.744 556.262C388.982 563.122 367.963 567.327 349.272 568.762C349.098 568.777 348.925 568.783 348.754 568.783V568.783Z" fill="#8BCAFF"/>
    <path d="M348.754 625.478C345.301 625.478 342.378 622.818 342.111 619.318C341.829 615.644 344.578 612.439 348.251 612.157C365.983 610.797 386.05 606.769 407.895 600.186C434.136 592.278 459.61 593.498 483.607 603.813C486.991 605.268 488.556 609.191 487.101 612.575C485.646 615.96 481.724 617.525 478.339 616.069C457.304 607.027 434.897 605.98 411.743 612.957C388.979 619.818 367.961 624.024 349.271 625.458C349.097 625.472 348.925 625.478 348.754 625.478V625.478Z" fill="#8BCAFF"/>
</svg>
