<svg width="488" height="488" viewBox="0 0 488 488" fill="none" xmlns="http://www.w3.org/2000/svg">
    <circle cx="244" cy="244" r="244" fill="white"/>
    <path d="M409.49 136.595H394.051V339.092C394.051 339.092 373.295 345.138 324.257 330.36C291.194 320.395 266.46 332.417 253.854 341.307C251.172 343.198 247.986 346.325 244.705 346.325H244.5H244.295C241.014 346.325 237.827 343.199 235.146 341.308C222.54 332.418 197.805 320.395 164.742 330.36C115.705 345.138 94.9478 339.092 94.9478 339.092V136.595H79.5091C75.3617 136.595 72 139.956 72 144.104V355.23C72 359.377 75.3624 362.739 79.5091 362.739H214.404C218.383 362.739 222.081 364.966 223.782 368.564C227.45 376.324 235.346 381.694 244.499 381.694C253.652 381.694 261.548 376.324 265.216 368.564C266.917 364.965 270.614 362.739 274.594 362.739H409.489C413.636 362.739 416.998 359.377 416.998 355.23V144.104C416.999 139.956 413.637 136.595 409.49 136.595Z" fill="#0B88DB"/>
    <path d="M110.411 355.229V340.294C99.8183 340.51 94.9492 339.092 94.9492 339.092V136.595H79.5091C75.3617 136.595 72 139.956 72 144.104V355.23C72 359.377 75.3617 362.739 79.5091 362.739H117.92C113.773 362.739 110.411 359.377 110.411 355.229Z" fill="#0070BB"/>
    <path d="M389.426 120.434C379.423 121.237 358.067 120.947 324.257 110.757C275.219 95.9784 244.5 129.566 244.5 129.566L239.149 136.595V338.871L244.5 346.051V346.325H244.704C247.985 346.325 251.172 345.282 253.853 343.391C266.46 334.5 291.193 322.479 324.257 332.443C373.294 347.221 396.134 341.176 396.134 341.176V126.638C396.134 123.008 393.045 120.144 389.426 120.434V120.434Z" fill="#DDEEFF"/>
    <path d="M264.866 115.164C251.765 121.625 244.5 129.566 244.5 129.566L239.149 136.595V338.871L244.5 346.051V346.325H244.704C247.985 346.325 251.172 345.282 253.853 343.391C256.852 341.276 260.546 338.985 264.866 336.854V115.164Z" fill="#D2E8FC"/>
    <path d="M371.92 161.433C371.786 161.433 371.651 161.429 371.516 161.418C356.927 160.298 340.521 157.016 322.754 151.661C304.681 146.213 287.192 147.032 270.774 154.089C268.131 155.225 265.07 154.003 263.934 151.362C262.799 148.72 264.02 145.658 266.661 144.523C285.393 136.471 305.276 135.52 325.758 141.692C342.807 146.83 358.471 149.974 372.313 151.037C375.18 151.256 377.325 153.759 377.105 156.626C376.896 159.357 374.615 161.433 371.92 161.433V161.433Z" fill="#8BCAFF"/>
    <path d="M371.92 183.56C371.786 183.56 371.652 183.555 371.516 183.544C356.93 182.426 340.525 179.143 322.754 173.787C304.681 168.34 287.192 169.157 270.774 176.216C268.131 177.351 265.07 176.13 263.934 173.489C262.799 170.847 264.02 167.785 266.661 166.649C285.393 158.598 305.276 157.646 325.758 163.819C342.811 168.958 358.474 172.102 372.312 173.163C375.179 173.383 377.324 175.885 377.105 178.752C376.897 181.484 374.615 183.56 371.92 183.56V183.56Z" fill="#8BCAFF"/>
    <path d="M371.92 294.194C371.786 294.194 371.651 294.189 371.516 294.178C356.926 293.059 340.521 289.776 322.754 284.421C304.681 278.975 287.193 279.792 270.774 286.85C268.131 287.986 265.07 286.764 263.934 284.123C262.799 281.481 264.02 278.419 266.661 277.284C285.393 269.232 305.276 268.279 325.758 274.452C342.807 279.591 358.47 282.735 372.313 283.797C375.18 284.017 377.325 286.52 377.105 289.387C376.896 292.118 374.615 294.194 371.92 294.194V294.194Z" fill="#8BCAFF"/>
    <path d="M371.92 316.321C371.786 316.321 371.651 316.316 371.516 316.306C356.927 315.186 340.521 311.903 322.754 306.549C304.681 301.101 287.192 301.919 270.774 308.977C268.131 310.112 265.07 308.891 263.934 306.25C262.799 303.608 264.02 300.546 266.661 299.411C285.393 291.359 305.276 290.408 325.758 296.58C342.807 301.718 358.471 304.862 372.313 305.925C375.18 306.144 377.325 308.647 377.105 311.514C376.896 314.244 374.615 316.321 371.92 316.321V316.321Z" fill="#8BCAFF"/>
    <path d="M371.92 205.687C371.786 205.687 371.651 205.682 371.516 205.671C356.926 204.551 340.521 201.269 322.754 195.914C304.681 190.468 287.193 191.285 270.774 198.343C268.131 199.478 265.07 198.257 263.934 195.616C262.799 192.974 264.02 189.912 266.661 188.776C285.393 180.725 305.276 179.772 325.758 185.945C342.807 191.084 358.47 194.228 372.313 195.29C375.18 195.51 377.325 198.013 377.105 200.88C376.896 203.611 374.615 205.687 371.92 205.687V205.687Z" fill="#8BCAFF"/>
    <path d="M371.92 249.94C371.787 249.94 371.652 249.936 371.517 249.926C356.931 248.806 340.525 245.523 322.755 240.168C304.681 234.721 287.193 235.539 270.774 242.596C268.132 243.732 265.071 242.51 263.935 239.869C262.799 237.227 264.02 234.165 266.662 233.03C285.394 224.978 305.276 224.026 325.758 230.199C342.812 235.339 358.475 238.483 372.313 239.543C375.18 239.764 377.325 242.266 377.105 245.133C376.897 247.863 374.615 249.94 371.92 249.94V249.94Z" fill="#8BCAFF"/>
    <path d="M371.92 227.814C371.786 227.814 371.651 227.809 371.516 227.798C356.927 226.679 340.521 223.396 322.754 218.041C304.682 212.595 287.193 213.411 270.774 220.47C268.131 221.605 265.07 220.384 263.934 217.743C262.799 215.101 264.02 212.039 266.661 210.904C285.393 202.852 305.276 201.899 325.758 208.073C342.807 213.211 358.471 216.355 372.312 217.417C375.179 217.637 377.324 220.14 377.104 223.007C376.896 225.737 374.615 227.814 371.92 227.814V227.814Z" fill="#8BCAFF"/>
    <path d="M371.92 272.067C371.787 272.067 371.652 272.062 371.517 272.052C356.928 270.933 340.523 267.65 322.755 262.294C304.682 256.848 287.193 257.665 270.774 264.723C268.132 265.86 265.071 264.638 263.935 261.997C262.799 259.354 264.02 256.293 266.662 255.157C285.394 247.106 305.276 246.152 325.758 252.326C342.809 257.464 358.472 260.608 372.313 261.67C375.18 261.89 377.325 264.392 377.105 267.259C376.897 269.99 374.615 272.067 371.92 272.067V272.067Z" fill="#8BCAFF"/>
    <path d="M99.573 120.434C109.576 121.237 130.932 120.947 164.743 110.757C213.78 95.9784 244.5 129.566 244.5 129.566V346.325H244.295C241.014 346.325 237.827 345.282 235.146 343.391C222.539 334.5 197.806 322.479 164.742 332.442C115.704 347.221 92.8651 341.175 92.8651 341.175V126.638C92.8657 123.008 95.9545 120.144 99.573 120.434V120.434Z" fill="#DDEEFF"/>
    <path d="M115.773 120.404C108.724 120.883 103.342 120.736 99.573 120.434C95.9545 120.144 92.8657 123.008 92.8657 126.638V341.175C92.8657 341.175 100.303 343.135 115.773 342.086V120.404Z" fill="#D2E8FC"/>
    <path d="M117.079 161.433C114.384 161.433 112.103 159.357 111.894 156.625C111.674 153.758 113.82 151.256 116.686 151.036C130.528 149.973 146.191 146.829 163.241 141.691C183.724 135.518 203.606 136.471 222.338 144.522C224.979 145.658 226.2 148.719 225.064 151.362C223.929 154.004 220.867 155.223 218.225 154.089C201.807 147.03 184.318 146.214 166.245 151.66C148.478 157.015 132.072 160.297 117.483 161.417C117.348 161.429 117.212 161.433 117.079 161.433Z" fill="#8BCAFF"/>
    <path d="M117.079 183.56C114.384 183.56 112.103 181.483 111.894 178.751C111.674 175.884 113.82 173.382 116.687 173.163C130.525 172.101 146.188 168.957 163.241 163.818C183.724 157.644 203.606 158.597 222.338 166.649C224.979 167.784 226.2 170.846 225.064 173.488C223.929 176.13 220.867 177.35 218.225 176.215C201.807 169.156 184.318 168.341 166.245 173.787C148.474 179.142 132.068 182.425 117.483 183.544C117.347 183.555 117.212 183.56 117.079 183.56V183.56Z" fill="#8BCAFF"/>
    <path d="M117.079 294.194C114.384 294.194 112.103 292.117 111.894 289.386C111.674 286.519 113.82 284.016 116.686 283.797C130.529 282.734 146.192 279.59 163.24 274.452C183.723 268.279 203.606 269.231 222.337 277.283C224.978 278.418 226.199 281.48 225.064 284.122C223.928 286.764 220.867 287.985 218.224 286.849C201.806 279.792 184.317 278.974 166.244 284.42C148.478 289.775 132.072 293.058 117.482 294.178C117.348 294.189 117.212 294.194 117.079 294.194Z" fill="#8BCAFF"/>
    <path d="M117.079 316.321C114.384 316.321 112.103 314.244 111.894 311.513C111.674 308.646 113.82 306.144 116.686 305.924C130.528 304.861 146.191 301.717 163.241 296.579C183.724 290.406 203.606 291.359 222.338 299.41C224.979 300.545 226.2 303.607 225.064 306.249C223.929 308.891 220.867 310.111 218.225 308.976C201.807 301.917 184.318 301.103 166.245 306.548C148.478 311.903 132.072 315.185 117.483 316.305C117.348 316.316 117.212 316.321 117.079 316.321V316.321Z" fill="#8BCAFF"/>
    <path d="M117.079 205.687C114.384 205.687 112.103 203.61 111.894 200.879C111.674 198.012 113.82 195.509 116.686 195.29C130.529 194.227 146.192 191.083 163.24 185.944C183.723 179.772 203.606 180.724 222.337 188.776C224.978 189.911 226.199 192.973 225.064 195.615C223.928 198.257 220.867 199.478 218.224 198.342C201.806 191.284 184.317 190.466 166.244 195.913C148.478 201.268 132.072 204.551 117.482 205.671C117.348 205.682 117.212 205.687 117.079 205.687V205.687Z" fill="#8BCAFF"/>
    <path d="M117.079 249.94C114.384 249.94 112.103 247.864 111.894 245.132C111.674 242.265 113.82 239.763 116.687 239.543C130.525 238.482 146.188 235.338 163.241 230.199C183.724 224.024 203.606 224.978 222.338 233.029C224.979 234.165 226.2 237.227 225.064 239.869C223.929 242.511 220.867 243.732 218.225 242.596C201.807 235.537 184.318 234.722 166.245 240.167C148.474 245.523 132.068 248.806 117.483 249.925C117.347 249.936 117.212 249.94 117.079 249.94Z" fill="#8BCAFF"/>
    <path d="M117.079 227.814C114.384 227.814 112.103 225.738 111.894 223.006C111.674 220.139 113.82 217.636 116.686 217.417C130.528 216.354 146.191 213.21 163.241 208.072C183.723 201.899 203.606 202.851 222.338 210.903C224.979 212.038 226.2 215.1 225.064 217.742C223.929 220.384 220.867 221.605 218.225 220.469C201.806 213.41 184.317 212.595 166.245 218.041C148.479 223.396 132.072 226.678 117.483 227.798C117.348 227.809 117.212 227.814 117.079 227.814V227.814Z" fill="#8BCAFF"/>
    <path d="M117.079 272.067C114.384 272.067 112.103 269.991 111.894 267.258C111.674 264.391 113.82 261.889 116.687 261.669C130.527 260.608 146.19 257.464 163.241 252.325C183.723 246.153 203.606 247.105 222.338 255.156C224.979 256.292 226.2 259.354 225.064 261.996C223.929 264.638 220.867 265.859 218.225 264.723C201.807 257.665 184.317 256.848 166.245 262.294C148.477 267.649 132.071 270.932 117.483 272.051C117.347 272.062 117.212 272.067 117.079 272.067V272.067Z" fill="#8BCAFF"/>
</svg>