<svg width="1327" height="993" viewBox="0 0 1327 993" fill="none" xmlns="http://www.w3.org/2000/svg">
    <path fill-rule="evenodd" clip-rule="evenodd" d="M911.871 275.707C905.737 275.712 899.613 276.07 893.522 276.776C893.303 276.799 893.084 276.822 892.866 276.846C875.743 221.094 824.315 182.994 766 182.874C751.483 182.859 737.069 185.271 723.351 189.996C689.389 116.553 608.904 76.6384 529.897 94.0565C450.88 111.48 394.643 181.531 394.7 262.444C394.705 276.428 396.448 290.355 399.865 303.904C324.588 315.398 270.803 382.871 276.4 458.825C281.986 534.785 345.07 593.663 421.218 594H911.871C942.866 594 971.79 585.138 996.25 569.809C1023.21 555.022 1044.29 531.68 1055.38 503.699C1065.39 482.864 1071 459.512 1071 434.851C1071 346.956 999.758 275.707 911.871 275.707ZM664.794 567.473H687.905C682.813 566.414 677.794 565.271 672.853 564.049C670.213 565.27 667.526 566.413 664.794 567.473Z" fill="white"/>
    <path fill-rule="evenodd" clip-rule="evenodd" d="M283.165 51.2168C281.475 51.2182 279.788 51.3169 278.11 51.5117C278.05 51.518 277.989 51.5244 277.929 51.531C273.212 36.155 259.045 25.6471 242.981 25.6142C238.982 25.6099 235.011 26.2751 231.232 27.5783C221.877 7.32307 199.706 -3.68505 177.942 1.11875C156.175 5.92399 140.683 25.2436 140.698 47.5589C140.7 51.4157 141.18 55.2567 142.121 58.9933C121.385 62.1634 106.568 80.7721 108.11 101.72C109.649 122.669 127.027 138.907 148.004 139H283.165C291.703 139 299.67 136.556 306.408 132.328C313.834 128.25 319.643 121.813 322.697 114.095C325.455 108.349 327 101.909 327 95.1077C327 70.8669 307.375 51.2168 283.165 51.2168ZM215.102 131.684H221.468C220.065 131.392 218.683 131.077 217.322 130.74C216.595 131.077 215.854 131.392 215.102 131.684Z" fill="white"/>
    <path fill-rule="evenodd" clip-rule="evenodd" d="M1174.37 178.426C1173.08 178.427 1171.78 178.503 1170.5 178.653C1170.45 178.658 1170.4 178.663 1170.36 178.668C1166.74 166.832 1155.87 158.743 1143.55 158.717C1140.48 158.714 1137.43 159.226 1134.53 160.229C1127.36 144.637 1110.35 136.163 1093.65 139.861C1076.96 143.56 1065.07 158.432 1065.08 175.61C1065.08 178.579 1065.45 181.536 1066.18 184.412C1050.27 186.852 1038.9 201.177 1040.08 217.302C1041.26 233.428 1054.6 245.928 1070.69 246H1174.37C1180.92 246 1187.03 244.119 1192.2 240.864C1197.9 237.725 1202.36 232.769 1204.7 226.829C1206.81 222.406 1208 217.448 1208 212.212C1208 193.552 1192.94 178.426 1174.37 178.426ZM1122.16 240.368H1127.04C1125.97 240.143 1124.91 239.901 1123.86 239.641C1123.31 239.901 1122.74 240.143 1122.16 240.368Z" fill="white"/>
    <path fill-rule="evenodd" clip-rule="evenodd" d="M410.373 925.426C409.077 925.427 407.782 925.503 406.495 925.653C406.449 925.658 406.403 925.663 406.357 925.668C402.738 913.832 391.87 905.743 379.547 905.717C376.479 905.714 373.433 906.226 370.534 907.229C363.358 891.637 346.35 883.163 329.654 886.861C312.956 890.56 301.072 905.432 301.084 922.61C301.085 925.579 301.453 928.536 302.175 931.412C286.268 933.852 274.902 948.177 276.084 964.302C277.265 980.428 290.596 992.928 306.688 993H410.373C416.923 993 423.035 991.119 428.204 987.864C433.9 984.725 438.356 979.769 440.699 973.829C442.815 969.406 444 964.448 444 959.212C444 940.552 428.945 925.426 410.373 925.426ZM358.16 987.368H363.044C361.968 987.143 360.907 986.901 359.863 986.641C359.305 986.901 358.738 987.143 358.16 987.368Z" fill="white"/>
    <path d="M839.49 275.595H824.051V478.092C824.051 478.092 803.295 484.138 754.257 469.36C721.194 459.395 696.46 471.417 683.854 480.307C681.172 482.198 677.986 485.325 674.705 485.325H674.5H674.295C671.014 485.325 667.827 482.199 665.146 480.308C652.54 471.418 627.805 459.395 594.742 469.36C545.705 484.138 524.948 478.092 524.948 478.092V275.595H509.509C505.362 275.595 502 278.956 502 283.104V494.23C502 498.377 505.362 501.739 509.509 501.739H644.404C648.383 501.739 652.081 503.966 653.782 507.564C657.45 515.324 665.346 520.694 674.499 520.694C683.652 520.694 691.548 515.324 695.216 507.564C696.917 503.965 700.614 501.739 704.594 501.739H839.489C843.636 501.739 846.998 498.377 846.998 494.23V283.104C846.999 278.956 843.637 275.595 839.49 275.595Z" fill="#0B88DB"/>
    <path d="M540.411 494.229V479.294C529.818 479.51 524.949 478.092 524.949 478.092V275.595H509.509C505.362 275.595 502 278.956 502 283.104V494.23C502 498.377 505.362 501.739 509.509 501.739H547.92C543.773 501.739 540.411 498.377 540.411 494.229Z" fill="#0070BB"/>
    <path d="M819.426 259.434C809.423 260.237 788.067 259.947 754.257 249.757C705.219 234.978 674.5 268.566 674.5 268.566L669.149 275.595V477.871L674.5 485.051V485.325H674.704C677.985 485.325 681.172 484.282 683.853 482.391C696.46 473.5 721.193 461.479 754.257 471.443C803.294 486.221 826.134 480.176 826.134 480.176V265.638C826.134 262.008 823.045 259.144 819.426 259.434Z" fill="#DDEEFF"/>
    <path d="M694.866 254.164C681.765 260.625 674.5 268.566 674.5 268.566L669.149 275.595V477.871L674.5 485.051V485.325H674.704C677.985 485.325 681.172 484.282 683.853 482.391C686.852 480.276 690.546 477.985 694.866 475.854V254.164Z" fill="#D2E8FC"/>
    <path d="M801.92 300.433C801.786 300.433 801.651 300.429 801.516 300.418C786.927 299.298 770.521 296.016 752.754 290.661C734.681 285.213 717.192 286.032 700.774 293.089C698.131 294.225 695.07 293.003 693.934 290.362C692.799 287.72 694.02 284.658 696.661 283.523C715.393 275.471 735.276 274.52 755.758 280.692C772.807 285.83 788.471 288.974 802.313 290.037C805.18 290.256 807.325 292.759 807.105 295.626C806.896 298.357 804.615 300.433 801.92 300.433Z" fill="#8BCAFF"/>
    <path d="M801.92 322.56C801.786 322.56 801.652 322.555 801.516 322.544C786.93 321.426 770.525 318.143 752.754 312.787C734.681 307.34 717.192 308.157 700.774 315.216C698.131 316.351 695.07 315.13 693.934 312.489C692.799 309.847 694.02 306.785 696.661 305.649C715.393 297.598 735.276 296.646 755.758 302.819C772.811 307.958 788.474 311.102 802.312 312.163C805.179 312.383 807.324 314.885 807.105 317.752C806.897 320.484 804.615 322.56 801.92 322.56Z" fill="#8BCAFF"/>
    <path d="M801.92 433.194C801.786 433.194 801.651 433.189 801.516 433.178C786.926 432.059 770.521 428.776 752.754 423.421C734.681 417.975 717.193 418.792 700.774 425.85C698.131 426.986 695.07 425.764 693.934 423.123C692.799 420.481 694.02 417.419 696.661 416.284C715.393 408.232 735.276 407.279 755.758 413.452C772.807 418.591 788.47 421.735 802.313 422.797C805.18 423.017 807.325 425.52 807.105 428.387C806.896 431.118 804.615 433.194 801.92 433.194Z" fill="#8BCAFF"/>
    <path d="M801.92 455.321C801.786 455.321 801.651 455.316 801.516 455.306C786.927 454.186 770.521 450.903 752.754 445.549C734.681 440.101 717.192 440.919 700.774 447.977C698.131 449.112 695.07 447.891 693.934 445.25C692.799 442.608 694.02 439.546 696.661 438.411C715.393 430.359 735.276 429.408 755.758 435.58C772.807 440.718 788.471 443.862 802.313 444.925C805.18 445.144 807.325 447.647 807.105 450.514C806.896 453.244 804.615 455.321 801.92 455.321Z" fill="#8BCAFF"/>
    <path d="M801.92 344.687C801.786 344.687 801.651 344.682 801.516 344.671C786.926 343.551 770.521 340.269 752.754 334.914C734.681 329.468 717.193 330.285 700.774 337.343C698.131 338.478 695.07 337.257 693.934 334.616C692.799 331.974 694.02 328.912 696.661 327.776C715.393 319.725 735.276 318.772 755.758 324.945C772.807 330.084 788.47 333.228 802.313 334.29C805.18 334.51 807.325 337.013 807.105 339.88C806.896 342.611 804.615 344.687 801.92 344.687Z" fill="#8BCAFF"/>
    <path d="M801.92 388.94C801.787 388.94 801.652 388.936 801.517 388.926C786.931 387.806 770.525 384.523 752.755 379.168C734.681 373.721 717.193 374.539 700.774 381.596C698.132 382.732 695.071 381.51 693.935 378.869C692.799 376.227 694.02 373.165 696.662 372.03C715.394 363.978 735.276 363.026 755.758 369.199C772.812 374.339 788.475 377.483 802.313 378.543C805.18 378.764 807.325 381.266 807.105 384.133C806.897 386.863 804.615 388.94 801.92 388.94Z" fill="#8BCAFF"/>
    <path d="M801.92 366.814C801.786 366.814 801.651 366.809 801.516 366.798C786.927 365.679 770.521 362.396 752.754 357.041C734.682 351.595 717.193 352.411 700.774 359.47C698.131 360.605 695.07 359.384 693.934 356.743C692.799 354.101 694.02 351.039 696.661 349.904C715.393 341.852 735.276 340.899 755.758 347.073C772.807 352.211 788.471 355.355 802.312 356.417C805.179 356.637 807.324 359.14 807.104 362.007C806.896 364.737 804.615 366.814 801.92 366.814Z" fill="#8BCAFF"/>
    <path d="M801.92 411.067C801.787 411.067 801.652 411.062 801.517 411.052C786.928 409.933 770.523 406.65 752.755 401.294C734.682 395.848 717.193 396.665 700.774 403.723C698.132 404.86 695.071 403.638 693.935 400.997C692.799 398.354 694.02 395.293 696.662 394.157C715.394 386.106 735.276 385.152 755.758 391.326C772.809 396.464 788.472 399.608 802.313 400.67C805.18 400.89 807.325 403.392 807.105 406.259C806.897 408.99 804.615 411.067 801.92 411.067Z" fill="#8BCAFF"/>
    <path d="M529.573 259.434C539.576 260.237 560.932 259.947 594.743 249.757C643.78 234.978 674.5 268.566 674.5 268.566V485.325H674.295C671.014 485.325 667.827 484.282 665.146 482.391C652.539 473.5 627.805 461.479 594.742 471.442C545.704 486.221 522.865 480.175 522.865 480.175V265.638C522.866 262.008 525.955 259.144 529.573 259.434Z" fill="#DDEEFF"/>
    <path d="M545.773 259.404C538.724 259.883 533.342 259.736 529.573 259.434C525.955 259.144 522.866 262.008 522.866 265.638V480.175C522.866 480.175 530.303 482.135 545.773 481.086V259.404Z" fill="#D2E8FC"/>
    <path d="M547.079 300.433C544.384 300.433 542.103 298.357 541.894 295.625C541.674 292.758 543.82 290.256 546.686 290.036C560.528 288.973 576.191 285.829 593.241 280.691C613.724 274.518 633.606 275.471 652.338 283.522C654.979 284.658 656.2 287.719 655.064 290.362C653.929 293.004 650.867 294.223 648.225 293.089C631.807 286.03 614.318 285.214 596.245 290.66C578.478 296.015 562.072 299.297 547.483 300.417C547.348 300.429 547.212 300.433 547.079 300.433Z" fill="#8BCAFF"/>
    <path d="M547.079 322.56C544.384 322.56 542.103 320.483 541.894 317.751C541.674 314.884 543.82 312.382 546.687 312.163C560.525 311.101 576.188 307.957 593.241 302.818C613.724 296.644 633.606 297.597 652.338 305.649C654.979 306.784 656.2 309.846 655.064 312.488C653.929 315.13 650.867 316.35 648.225 315.215C631.807 308.156 614.318 307.341 596.245 312.787C578.474 318.142 562.068 321.425 547.483 322.544C547.347 322.555 547.212 322.56 547.079 322.56Z" fill="#8BCAFF"/>
    <path d="M547.079 433.194C544.384 433.194 542.103 431.117 541.894 428.386C541.674 425.519 543.82 423.016 546.686 422.797C560.529 421.734 576.192 418.59 593.24 413.452C613.723 407.279 633.606 408.231 652.337 416.283C654.978 417.418 656.199 420.48 655.064 423.122C653.928 425.764 650.867 426.985 648.224 425.849C631.806 418.792 614.317 417.974 596.244 423.42C578.478 428.775 562.072 432.058 547.482 433.178C547.348 433.189 547.212 433.194 547.079 433.194Z" fill="#8BCAFF"/>
    <path d="M547.079 455.321C544.384 455.321 542.103 453.244 541.894 450.513C541.674 447.646 543.82 445.144 546.686 444.924C560.528 443.861 576.191 440.717 593.241 435.579C613.724 429.406 633.606 430.359 652.338 438.41C654.979 439.545 656.2 442.607 655.064 445.249C653.929 447.891 650.867 449.111 648.225 447.976C631.807 440.917 614.318 440.103 596.245 445.548C578.478 450.903 562.072 454.185 547.483 455.305C547.348 455.316 547.212 455.321 547.079 455.321Z" fill="#8BCAFF"/>
    <path d="M547.079 344.687C544.384 344.687 542.103 342.61 541.894 339.879C541.674 337.012 543.82 334.509 546.686 334.29C560.529 333.227 576.192 330.083 593.24 324.944C613.723 318.772 633.606 319.724 652.337 327.776C654.978 328.911 656.199 331.973 655.064 334.615C653.928 337.257 650.867 338.478 648.224 337.342C631.806 330.284 614.317 329.466 596.244 334.913C578.478 340.268 562.072 343.551 547.482 344.671C547.348 344.682 547.212 344.687 547.079 344.687Z" fill="#8BCAFF"/>
    <path d="M547.079 388.94C544.384 388.94 542.103 386.864 541.894 384.132C541.674 381.265 543.82 378.763 546.687 378.543C560.525 377.482 576.188 374.338 593.241 369.199C613.724 363.024 633.606 363.978 652.338 372.029C654.979 373.165 656.2 376.227 655.064 378.869C653.929 381.511 650.867 382.732 648.225 381.596C631.807 374.537 614.318 373.722 596.245 379.167C578.474 384.523 562.068 387.806 547.483 388.925C547.347 388.936 547.212 388.94 547.079 388.94Z" fill="#8BCAFF"/>
    <path d="M547.079 366.814C544.384 366.814 542.103 364.738 541.894 362.006C541.674 359.139 543.82 356.636 546.686 356.417C560.528 355.354 576.191 352.21 593.241 347.072C613.723 340.899 633.606 341.851 652.338 349.903C654.979 351.038 656.2 354.1 655.064 356.742C653.929 359.384 650.867 360.605 648.225 359.469C631.806 352.41 614.318 351.595 596.245 357.041C578.479 362.396 562.072 365.678 547.483 366.798C547.348 366.809 547.212 366.814 547.079 366.814Z" fill="#8BCAFF"/>
    <path d="M547.079 411.067C544.384 411.067 542.103 408.991 541.894 406.258C541.674 403.391 543.82 400.889 546.687 400.669C560.527 399.608 576.19 396.464 593.241 391.325C613.723 385.153 633.606 386.105 652.338 394.156C654.979 395.292 656.2 398.354 655.064 400.996C653.929 403.638 650.867 404.859 648.225 403.723C631.807 396.665 614.317 395.848 596.245 401.294C578.477 406.649 562.071 409.932 547.483 411.051C547.347 411.062 547.212 411.067 547.079 411.067Z" fill="#8BCAFF"/>
    <path d="M129.077 618.889C129.682 617.074 130.841 616.167 132.554 616.167C134.369 616.167 135.83 616.923 136.939 618.435C138.149 619.846 138.754 621.711 138.754 624.03C138.754 626.348 138.098 628.566 136.788 630.682C135.578 632.698 134.066 634.412 132.252 635.823C130.538 637.234 128.119 638.595 124.994 639.906C120.66 641.821 114.209 643.988 105.641 646.407C103.222 655.278 101.407 666.013 100.198 678.613C99.0888 691.112 97.9296 701.545 96.72 709.911C95.5104 718.278 94.1496 726.09 92.6376 733.347C91.1256 740.504 88.908 747.51 85.9848 754.364C83.0616 761.319 79.6344 767.216 75.7032 772.054C71.772 776.893 66.6816 780.774 60.432 783.697C54.2832 786.62 47.2272 788.082 39.264 788.082C23.4384 788.082 12.1488 782.487 5.3952 771.298C1.8672 765.452 0.1032 759.051 0.1032 752.096C0.1032 748.77 0.5064 745.342 1.3128 741.814C3.732 731.533 8.772 724.023 16.4328 719.286C20.9688 716.463 25.908 715.052 31.2504 715.052C42.1368 715.052 49.596 719.336 53.628 727.904C55.2408 731.533 56.0472 735.111 56.0472 738.639C56.0472 742.066 55.4928 745.443 54.384 748.77C51.6624 756.229 47.2272 759.958 41.0784 759.958C39.3648 759.958 37.9536 759.001 36.8448 757.086C40.9776 757.086 44.2536 754.162 46.6728 748.316C48.1848 744.687 48.9408 741.26 48.9408 738.034C48.9408 734.809 48.4872 731.835 47.58 729.114C44.9592 721.654 39.5664 717.925 31.4016 717.925C21.8256 717.925 14.316 722.36 8.8728 731.23C5.1432 737.379 3.2784 743.931 3.2784 750.886C3.2784 753.306 3.5304 755.725 4.0344 758.144C5.8488 768.829 11.2416 776.338 20.2128 780.673C24.9504 782.991 30.948 784.15 38.2056 784.15C45.4632 784.15 52.1664 781.782 58.3152 777.044C64.464 772.306 69.2016 766.309 72.528 759.051C75.9552 751.894 78.9288 743.226 81.4488 733.045C84.0696 722.763 85.9848 712.986 87.1944 703.712C90.7224 678.411 94.2 660.066 97.6272 648.675C79.1808 654.018 66.6312 659.965 59.9784 666.517C57.2568 669.339 54.9384 672.918 53.0232 677.252C51.108 681.486 50.1504 686.223 50.1504 691.465C50.1504 696.706 51.4608 701.142 54.0816 704.77C56.7024 708.399 60.0288 710.214 64.0608 710.214C64.0608 711.02 63.6576 711.776 62.8512 712.482C62.0448 713.187 61.0368 713.54 59.8272 713.54C54.888 713.54 50.8056 711.423 47.58 707.19C44.4552 702.956 42.8928 698.269 42.8928 693.128C42.8928 687.886 43.4976 683.451 44.7072 679.822C46.0176 676.194 47.58 673.069 49.3944 670.448C51.3096 667.726 53.8296 665.156 56.9544 662.737C60.18 660.318 63.204 658.302 66.0264 656.689C68.8488 655.076 72.4272 653.413 76.7616 651.699C83.2128 649.28 90.6216 646.861 98.988 644.442C103.726 631.237 110.53 624.634 119.4 624.634C120.106 624.634 120.71 624.886 121.214 625.39C121.819 625.794 122.273 626.398 122.575 627.205C115.62 627.205 110.429 632.144 107.002 642.022C115.872 639.402 122.525 636.831 126.96 634.311C131.496 631.791 133.764 628.566 133.764 624.634C133.764 622.921 133.31 621.56 132.403 620.552C131.496 619.443 130.387 618.889 129.077 618.889ZM126.864 720.042C126.864 730.626 129.687 735.918 135.332 735.918C139.162 735.918 142.74 733.549 146.067 728.811C152.417 719.941 156.298 708.248 157.709 693.733C154.181 692.221 151.712 689.751 150.3 686.324C149.393 684.207 148.94 682.443 148.94 681.032C148.94 679.52 149.141 678.21 149.544 677.101C150.452 674.379 152.115 673.018 154.534 673.018C156.953 673.018 158.768 674.581 159.977 677.706C161.288 680.73 161.943 684.61 161.943 689.348C161.943 689.65 161.943 690.003 161.943 690.406C163.152 690.81 164.916 691.011 167.235 691.011C169.654 691.011 171.771 690.054 173.585 688.138C175.4 686.223 176.307 684.459 176.307 682.846C176.307 682.443 176.559 682.191 177.063 682.09C177.567 681.889 178.02 681.889 178.424 682.09C178.928 682.292 179.18 682.594 179.18 682.998C179.18 685.921 177.92 688.693 175.4 691.314C172.98 693.934 169.704 695.245 165.572 695.245C164.564 695.245 163.253 695.144 161.64 694.942C161.036 701.797 159.574 708.601 157.256 715.354C155.038 722.007 151.913 727.803 147.881 732.742C143.849 737.581 139.515 740 134.878 740C126.108 740 120.716 735.313 118.7 725.938C118.196 723.217 117.944 720.445 117.944 717.622C117.944 711.272 119.405 704.468 122.328 697.21C126.159 687.735 130.896 681.838 136.541 679.52C139.464 678.512 141.48 678.361 142.589 679.066C143.698 679.772 144.404 680.578 144.706 681.486C140.069 681.486 135.936 685.82 132.308 694.489C128.679 703.158 126.864 711.675 126.864 720.042ZM225.003 736.371C227.624 736.371 231.303 732.894 236.041 725.938C240.778 718.983 244.861 712.028 248.288 705.073L253.429 694.64H257.511C256.906 695.85 256.1 697.513 255.092 699.63C254.185 701.646 252.32 705.325 249.498 710.667C246.675 715.909 243.954 720.546 241.333 724.578C238.813 728.61 235.94 732.289 232.714 735.615C229.59 738.841 226.616 740.454 223.794 740.454C220.971 740.454 218.653 739.597 216.838 737.883C214.621 735.666 213.512 731.785 213.512 726.241C213.512 720.697 214.47 713.389 216.385 704.317H215.326C203.734 728.106 194.108 740 186.447 740C179.694 740 176.317 735.615 176.317 726.846C176.317 720.495 179.038 707.845 184.482 688.894C185.691 684.56 186.598 681.334 187.203 679.218C187.808 677 188.766 675.891 190.076 675.891C191.89 675.891 193.201 677.202 194.007 679.822C194.41 680.931 194.612 682.342 194.612 684.056C194.612 685.669 194.36 687.483 193.856 689.499C193.352 691.414 192.294 695.144 190.681 700.688C186.346 715.606 184.179 725.636 184.179 730.777C184.179 734.103 185.187 735.766 187.203 735.766C189.723 735.766 192.697 733.498 196.124 728.962C199.753 724.225 202.726 719.638 205.045 715.203C207.363 710.768 209.228 707.139 210.639 704.317C212.05 701.494 213.462 698.571 214.873 695.547C216.284 692.422 217.393 689.852 218.199 687.836C219.106 685.82 219.963 683.905 220.77 682.09C221.576 680.175 221.979 679.167 221.979 679.066C222.886 676.95 223.894 675.891 225.003 675.891C226.818 675.891 228.128 677.202 228.934 679.822C229.338 681.032 229.539 682.494 229.539 684.207C229.539 685.921 229.338 687.735 228.934 689.65C228.531 691.465 227.876 694.186 226.969 697.815C226.062 701.444 225.356 704.418 224.852 706.736C224.348 709.054 223.743 711.877 223.038 715.203C222.03 720.747 221.526 725.686 221.526 730.021C221.526 734.254 222.685 736.371 225.003 736.371ZM251.392 740C248.57 740 247.158 737.833 247.158 733.498C247.158 731.18 249.981 714.296 255.626 682.846C256.029 680.73 256.936 679.671 258.347 679.671C260.162 679.671 261.522 680.982 262.43 683.602C262.934 685.014 263.186 686.576 263.186 688.29C263.186 689.902 262.984 691.666 262.581 693.582L260.162 705.98H260.918C269.586 685.82 277.55 675.74 284.807 675.74C288.839 675.74 291.51 677.706 292.821 681.637C293.325 683.149 293.577 684.913 293.577 686.929C293.577 688.844 293.022 690.961 291.914 693.279C289.998 697.21 287.126 699.176 283.295 699.176C282.489 699.176 281.834 698.974 281.33 698.571C280.926 698.168 280.674 697.614 280.574 696.908C281.38 696.908 282.438 695.446 283.749 692.523C285.059 689.499 285.815 686.727 286.017 684.207C286.218 681.687 285.362 680.226 283.446 679.822C279.918 679.822 275.735 684.409 270.897 693.582C266.058 702.754 262.178 711.524 259.254 719.89C256.331 728.257 254.618 733.7 254.114 736.22C253.61 738.74 252.702 740 251.392 740ZM299.967 740C297.145 740 295.734 737.833 295.734 733.498C295.734 731.18 298.556 714.296 304.201 682.846C304.503 680.73 305.411 679.671 306.923 679.671C308.737 679.671 310.098 680.982 311.005 683.602C311.509 685.014 311.761 686.576 311.761 688.29C311.761 689.902 311.559 691.666 311.156 693.582L308.737 705.678H309.644C318.716 685.316 327.385 675.135 335.651 675.135C338.876 675.135 341.346 676.143 343.059 678.159C344.773 680.074 345.63 682.746 345.63 686.173C345.63 689.6 344.269 697.009 341.547 708.399C338.826 719.79 337.465 727.702 337.465 732.138C337.465 738.69 338.675 741.966 341.094 741.966C341.094 742.671 340.64 743.377 339.733 744.082C338.826 744.788 337.767 745.141 336.558 745.141C330.711 745.141 327.788 740.554 327.788 731.382C327.788 725.737 329.3 717.219 332.324 705.829C335.449 694.338 337.011 687.03 337.011 683.905C337.011 680.679 335.751 679.066 333.231 679.066C329.603 679.066 325.218 683.804 320.077 693.279C315.037 702.754 310.955 711.826 307.83 720.495C304.806 729.063 303.042 734.456 302.538 736.674C302.135 738.891 301.278 740 299.967 740ZM367.931 740.151C359.968 740.151 355.986 734.154 355.986 722.158C355.986 715.203 357.8 707.593 361.429 699.327C366.469 688.138 372.87 680.83 380.632 677.403C383.353 676.294 386.075 675.74 388.796 675.74C391.619 675.74 393.836 676.546 395.449 678.159C397.062 679.772 397.868 681.586 397.868 683.602C397.868 684.51 397.364 684.963 396.356 684.963C395.449 684.862 394.996 684.358 394.996 683.451C394.996 682.544 394.492 681.738 393.484 681.032C392.576 680.226 391.216 679.822 389.401 679.822C383.051 679.822 377.305 685.518 372.164 696.908C367.326 707.492 364.907 717.522 364.907 726.997C364.907 732.843 366.167 735.766 368.687 735.766C371.308 735.766 374.432 733.599 378.061 729.265C381.791 724.83 385.218 719.689 388.343 713.842C395.096 701.545 399.078 693.632 400.288 690.104C401.497 686.576 402.808 684.812 404.219 684.812C406.739 684.812 407.999 686.929 407.999 691.162C407.999 692.473 407.848 693.985 407.545 695.698C404.219 711.826 402.404 721.15 402.102 723.67C401.9 726.19 401.8 728.005 401.8 729.114C401.8 733.952 402.959 736.371 405.277 736.371C407.898 736.371 411.577 732.894 416.315 725.938C421.052 718.983 425.135 712.028 428.562 705.073L433.703 694.64H437.785C437.18 695.85 436.374 697.513 435.366 699.63C434.459 701.646 432.594 705.325 429.772 710.667C426.949 715.909 424.228 720.546 421.607 724.578C419.087 728.61 416.214 732.289 412.988 735.615C409.864 738.841 407.142 740.454 404.824 740.454C397.364 740.454 393.635 735.01 393.635 724.124C393.635 720.495 394.038 716.262 394.844 711.423H393.786C383.504 730.575 374.886 740.151 367.931 740.151ZM466.578 645.198C470.206 635.722 472.021 629.271 472.021 625.844C472.021 622.417 471.164 620.602 469.45 620.401C464.713 620.401 459.774 628.011 454.633 643.232C449.593 658.352 445.611 674.077 442.688 690.406C439.866 706.635 438.454 718.126 438.454 724.88C438.454 736.27 441.277 741.966 446.922 741.966C446.922 742.671 446.468 743.377 445.561 744.082C444.654 744.788 443.595 745.141 442.386 745.141C434.12 745.141 429.987 737.732 429.987 722.914C429.987 717.471 430.995 709.155 433.011 697.966C435.027 686.677 437.648 674.883 440.874 662.586C444.099 650.288 448.282 639.603 453.423 630.531C458.564 621.358 463.806 616.772 469.148 616.772C473.382 616.772 475.498 619.443 475.498 624.786C475.498 628.818 474.238 634.462 471.718 641.72C466.88 655.832 459.925 669.944 450.853 684.056C448.434 687.786 446.266 690.81 444.351 693.128C443.847 693.733 443.595 693.531 443.595 692.523C443.494 690.608 443.948 688.945 444.956 687.534C453.222 675.135 460.429 661.023 466.578 645.198ZM485.45 649.431C487.768 649.431 488.927 650.994 488.927 654.118C488.927 657.243 487.415 659.763 484.391 661.678C482.879 662.686 481.569 663.19 480.46 663.19C478.847 663.19 477.89 662.686 477.587 661.678L477.436 661.225C478.343 661.225 478.999 660.267 479.402 658.352C479.805 656.336 480.41 654.37 481.216 652.455C482.123 650.439 483.535 649.431 485.45 649.431ZM475.773 736.371C478.394 736.371 482.073 732.894 486.811 725.938C491.548 718.983 495.631 712.028 499.058 705.073L504.199 694.64H508.281C507.676 695.85 506.87 697.513 505.862 699.63C504.955 701.646 503.09 705.325 500.267 710.667C497.445 715.909 494.723 720.546 492.103 724.578C489.583 728.61 486.71 732.289 483.484 735.615C480.359 738.841 477.638 740.454 475.319 740.454C467.86 740.454 464.131 735.615 464.131 725.938C464.131 718.681 466.197 706.887 470.33 690.558C470.733 688.844 471.035 687.534 471.237 686.626C471.539 685.719 471.842 684.56 472.144 683.149C472.447 681.637 472.749 680.276 473.051 679.066C473.555 676.95 474.463 675.891 475.773 675.891C477.587 675.891 478.898 677.202 479.704 679.822C480.107 681.032 480.309 682.494 480.309 684.207C480.309 685.921 480.107 687.735 479.704 689.65C479.301 691.465 478.646 694.186 477.739 697.815C476.831 701.444 476.126 704.418 475.622 706.736C475.118 709.054 474.563 711.877 473.959 715.203C472.85 720.747 472.295 725.686 472.295 730.021C472.295 734.254 473.455 736.371 475.773 736.371ZM501.703 740C498.88 740 497.469 737.833 497.469 733.498C497.469 731.18 500.292 714.296 505.936 682.846C506.239 680.73 507.146 679.671 508.658 679.671C510.472 679.671 511.833 680.982 512.74 683.602C513.244 685.014 513.496 686.576 513.496 688.29C513.496 689.902 513.295 691.666 512.892 693.582L510.472 705.678H511.38C520.452 685.316 529.12 675.135 537.386 675.135C540.612 675.135 543.081 676.143 544.795 678.159C546.508 680.074 547.365 682.746 547.365 686.173C547.365 689.6 546.004 697.009 543.283 708.399C540.561 719.79 539.2 727.702 539.2 732.138C539.2 738.69 540.41 741.966 542.829 741.966C542.829 742.671 542.376 743.377 541.468 744.082C540.561 744.788 539.503 745.141 538.293 745.141C532.447 745.141 529.524 740.554 529.524 731.382C529.524 725.737 531.036 717.219 534.06 705.829C537.184 694.338 538.747 687.03 538.747 683.905C538.747 680.679 537.487 679.066 534.967 679.066C531.338 679.066 526.953 683.804 521.812 693.279C516.772 702.754 512.69 711.826 509.565 720.495C506.541 729.063 504.777 734.456 504.273 736.674C503.87 738.891 503.013 740 501.703 740ZM605.954 684.812C608.474 684.812 609.734 686.929 609.734 691.162C609.734 694.186 608.071 702.956 604.745 717.471C601.418 731.886 598.445 743.83 595.824 753.306C593.203 762.781 590.733 769.786 588.415 774.322C586.097 778.959 583.274 783.596 579.948 788.233C576.722 792.87 573.144 796.045 569.213 797.758C565.281 799.472 560.745 800.329 555.605 800.329C546.029 800.329 541.241 795.44 541.241 785.662C541.241 779.917 543.408 773.718 547.742 767.065C553.992 757.287 562.358 750.836 572.841 747.711C576.571 746.602 580.452 746.048 584.484 746.048C585.189 746.048 585.542 746.754 585.542 748.165C585.542 749.576 585.189 750.282 584.484 750.282C572.589 750.282 562.61 754.969 554.546 764.343C548.599 771.399 545.625 778.203 545.625 784.755C545.625 791.307 548.145 795.087 553.185 796.095L555.605 796.246C563.87 796.246 570.422 792.819 575.261 785.965C580.2 779.01 584.081 770.24 586.903 759.656C589.725 748.971 593.354 732.238 597.789 709.458H596.58C585.693 729.92 576.722 740.151 569.666 740.151C561.703 740.151 557.721 734.154 557.721 722.158C557.721 715.203 559.536 707.593 563.165 699.327C568.205 688.138 574.605 680.83 582.367 677.403C585.089 676.294 587.81 675.74 590.532 675.74C593.354 675.74 595.572 676.546 597.185 678.159C598.797 679.772 599.604 681.586 599.604 683.602C599.604 684.51 599.1 684.963 598.092 684.963C597.185 684.862 596.731 684.358 596.731 683.451C596.731 682.544 596.227 681.738 595.219 681.032C594.312 680.226 592.951 679.822 591.137 679.822C584.786 679.822 579.041 685.518 573.9 696.908C569.061 707.492 566.642 717.522 566.642 726.997C566.642 732.843 567.902 735.766 570.422 735.766C573.749 735.766 578.083 731.835 583.425 723.973C591.489 712.078 597.789 700.436 602.325 689.046C603.535 686.223 604.745 684.812 605.954 684.812ZM667.262 740C664.44 740 663.029 737.833 663.029 733.498C663.029 731.18 665.851 714.296 671.496 682.846C671.798 680.73 672.705 679.671 674.217 679.671C676.032 679.671 677.393 680.982 678.3 683.602C678.804 685.014 679.056 686.576 679.056 688.29C679.056 689.902 678.854 691.666 678.451 693.582L676.183 705.073H677.09C685.961 685.114 694.529 675.135 702.794 675.135C705.617 675.135 707.834 676.143 709.447 678.159C711.161 680.175 712.017 682.594 712.017 685.417C712.017 690.658 711.211 697.21 709.598 705.073H710.203C718.771 686.425 727.188 677.101 735.453 677.101C738.175 677.101 740.393 678.109 742.106 680.125C743.82 682.141 744.677 684.812 744.677 688.138C744.677 691.465 743.366 698.521 740.745 709.306C738.225 720.092 736.965 727.702 736.965 732.138C736.965 738.69 738.175 741.966 740.594 741.966C740.594 742.671 740.141 743.377 739.233 744.082C738.326 744.788 737.268 745.141 736.058 745.141C730.212 745.141 727.289 740.554 727.289 731.382C727.289 725.636 728.75 717.37 731.673 706.585C734.597 695.698 736.058 688.743 736.058 685.719C736.058 682.594 735.05 681.032 733.034 681.032C729.305 681.032 724.92 685.568 719.88 694.64C714.941 703.611 710.959 712.23 707.935 720.495C705.012 728.761 703.298 734.103 702.794 736.522C702.29 738.841 701.383 740 700.073 740C697.25 740 695.839 737.833 695.839 733.498C695.839 731.886 696.696 726.19 698.409 716.413C701.736 698.47 703.399 687.786 703.399 684.358C703.399 680.83 702.391 679.066 700.375 679.066C697.653 679.066 694.478 681.889 690.849 687.534C687.221 693.078 683.945 699.529 681.021 706.887C674.671 722.41 670.941 732.44 669.833 736.976C669.429 738.992 668.573 740 667.262 740ZM754.271 800.329C744.695 800.329 739.907 795.44 739.907 785.662C739.907 779.917 742.074 773.718 746.409 767.065C752.658 757.287 761.025 750.836 771.508 747.711C775.237 746.602 779.118 746.048 783.15 746.048C783.856 746.048 784.209 746.754 784.209 748.165C784.209 749.576 783.856 750.282 783.15 750.282C771.256 750.282 761.277 754.969 753.213 764.343C747.265 771.399 744.292 778.203 744.292 784.755C744.292 791.307 746.812 795.087 751.852 796.095L754.271 796.246C762.637 796.246 769.341 792.718 774.381 785.662C777.909 780.622 780.529 775.482 782.243 770.24C784.057 765.099 785.368 760.966 786.174 757.842C787.081 754.717 788.089 750.584 789.198 745.443C790.307 740.403 791.164 736.119 791.769 732.591C792.474 729.063 793.432 724.023 794.641 717.471C795.952 710.818 796.96 705.577 797.665 701.746H796.758C784.561 727.249 774.532 740 766.669 740C759.916 740 756.539 735.615 756.539 726.846C756.539 720.495 759.261 707.845 764.704 688.894C765.913 684.56 766.821 681.334 767.425 679.218C768.03 677 768.988 675.891 770.298 675.891C772.113 675.891 773.423 677.202 774.229 679.822C774.633 680.931 774.834 682.342 774.834 684.056C774.834 685.669 774.582 687.483 774.078 689.499C773.574 691.414 772.516 695.144 770.903 700.688C766.569 715.606 764.401 725.636 764.401 730.777C764.401 734.103 765.409 735.766 767.425 735.766C769.845 735.766 772.818 733.498 776.346 728.962C779.975 724.426 783.503 718.882 786.93 712.33C793.18 700.436 798.27 689.348 802.201 679.066C803.008 676.95 804.016 675.891 805.225 675.891C806.939 675.891 808.199 677.202 809.005 679.822C809.409 681.234 809.61 682.796 809.61 684.51C809.61 686.223 808.753 691.162 807.04 699.327C805.427 707.492 803.764 715.304 802.05 722.763C800.437 730.222 798.27 738.992 795.549 749.072C792.928 759.152 790.408 766.662 787.989 771.601C785.67 776.54 782.797 781.58 779.37 786.721C776.044 791.862 772.314 795.39 768.181 797.305C764.049 799.321 759.412 800.329 754.271 800.329ZM992.312 618.889C992.917 617.074 994.076 616.167 995.79 616.167C997.604 616.167 999.066 616.923 1000.17 618.435C1001.38 619.846 1001.99 621.711 1001.99 624.03C1001.99 626.348 1001.33 628.566 1000.02 630.682C998.814 632.698 997.302 634.412 995.487 635.823C993.774 637.234 991.355 638.595 988.23 639.906C983.895 641.821 977.444 643.988 968.876 646.407C966.457 655.278 964.643 666.013 963.433 678.613C962.324 691.112 961.165 701.545 959.955 709.911C958.746 718.278 957.385 726.09 955.873 733.347C954.361 740.504 952.143 747.51 949.22 754.364C946.297 761.319 942.87 767.216 938.939 772.054C935.007 776.893 929.917 780.774 923.667 783.697C917.519 786.62 910.463 788.082 902.499 788.082C886.674 788.082 875.384 782.487 868.631 771.298C865.103 765.452 863.339 759.051 863.339 752.096C863.339 748.77 863.742 745.342 864.548 741.814C866.967 731.533 872.007 724.023 879.668 719.286C884.204 716.463 889.143 715.052 894.486 715.052C905.372 715.052 912.831 719.336 916.863 727.904C918.476 731.533 919.283 735.111 919.283 738.639C919.283 742.066 918.728 745.443 917.619 748.77C914.898 756.229 910.463 759.958 904.314 759.958C902.6 759.958 901.189 759.001 900.08 757.086C904.213 757.086 907.489 754.162 909.908 748.316C911.42 744.687 912.176 741.26 912.176 738.034C912.176 734.809 911.723 731.835 910.815 729.114C908.195 721.654 902.802 717.925 894.637 717.925C885.061 717.925 877.551 722.36 872.108 731.23C868.379 737.379 866.514 743.931 866.514 750.886C866.514 753.306 866.766 755.725 867.27 758.144C869.084 768.829 874.477 776.338 883.448 780.673C888.186 782.991 894.183 784.15 901.441 784.15C908.699 784.15 915.402 781.782 921.551 777.044C927.699 772.306 932.437 766.309 935.763 759.051C939.191 751.894 942.164 743.226 944.684 733.045C947.305 722.763 949.22 712.986 950.43 703.712C953.958 678.411 957.435 660.066 960.863 648.675C942.416 654.018 929.867 659.965 923.214 666.517C920.492 669.339 918.174 672.918 916.259 677.252C914.343 681.486 913.386 686.223 913.386 691.465C913.386 696.706 914.696 701.142 917.317 704.77C919.938 708.399 923.264 710.214 927.296 710.214C927.296 711.02 926.893 711.776 926.087 712.482C925.28 713.187 924.272 713.54 923.063 713.54C918.123 713.54 914.041 711.423 910.815 707.19C907.691 702.956 906.128 698.269 906.128 693.128C906.128 687.886 906.733 683.451 907.943 679.822C909.253 676.194 910.815 673.069 912.63 670.448C914.545 667.726 917.065 665.156 920.19 662.737C923.415 660.318 926.439 658.302 929.262 656.689C932.084 655.076 935.663 653.413 939.997 651.699C946.448 649.28 953.857 646.861 962.223 644.442C966.961 631.237 973.765 624.634 982.635 624.634C983.341 624.634 983.946 624.886 984.45 625.39C985.055 625.794 985.508 626.398 985.811 627.205C978.855 627.205 973.664 632.144 970.237 642.022C979.107 639.402 985.76 636.831 990.195 634.311C994.731 631.791 996.999 628.566 996.999 624.634C996.999 622.921 996.546 621.56 995.639 620.552C994.731 619.443 993.623 618.889 992.312 618.889ZM990.1 720.042C990.1 730.626 992.922 735.918 998.567 735.918C1002.4 735.918 1005.98 733.549 1009.3 728.811C1015.65 719.941 1019.53 708.248 1020.94 693.733C1017.42 692.221 1014.95 689.751 1013.54 686.324C1012.63 684.207 1012.17 682.443 1012.17 681.032C1012.17 679.52 1012.38 678.21 1012.78 677.101C1013.69 674.379 1015.35 673.018 1017.77 673.018C1020.19 673.018 1022 674.581 1023.21 677.706C1024.52 680.73 1025.18 684.61 1025.18 689.348C1025.18 689.65 1025.18 690.003 1025.18 690.406C1026.39 690.81 1028.15 691.011 1030.47 691.011C1032.89 691.011 1035.01 690.054 1036.82 688.138C1038.63 686.223 1039.54 684.459 1039.54 682.846C1039.54 682.443 1039.79 682.191 1040.3 682.09C1040.8 681.889 1041.26 681.889 1041.66 682.09C1042.16 682.292 1042.41 682.594 1042.41 682.998C1042.41 685.921 1041.15 688.693 1038.63 691.314C1036.22 693.934 1032.94 695.245 1028.81 695.245C1027.8 695.245 1026.49 695.144 1024.88 694.942C1024.27 701.797 1022.81 708.601 1020.49 715.354C1018.27 722.007 1015.15 727.803 1011.12 732.742C1007.08 737.581 1002.75 740 998.113 740C989.344 740 983.951 735.313 981.935 725.938C981.431 723.217 981.179 720.445 981.179 717.622C981.179 711.272 982.64 704.468 985.564 697.21C989.394 687.735 994.132 681.838 999.776 679.52C1002.7 678.512 1004.72 678.361 1005.82 679.066C1006.93 679.772 1007.64 680.578 1007.94 681.486C1003.3 681.486 999.172 685.82 995.543 694.489C991.914 703.158 990.1 711.675 990.1 720.042ZM1088.24 736.371C1090.86 736.371 1094.54 732.894 1099.28 725.938C1104.01 718.983 1108.1 712.028 1111.52 705.073L1116.66 694.64H1120.75C1120.14 695.85 1119.34 697.513 1118.33 699.63C1117.42 701.646 1115.56 705.325 1112.73 710.667C1109.91 715.909 1107.19 720.546 1104.57 724.578C1102.05 728.61 1099.18 732.289 1095.95 735.615C1092.82 738.841 1089.85 740.454 1087.03 740.454C1084.21 740.454 1081.89 739.597 1080.07 737.883C1077.86 735.666 1076.75 731.785 1076.75 726.241C1076.75 720.697 1077.7 713.389 1079.62 704.317H1078.56C1066.97 728.106 1057.34 740 1049.68 740C1042.93 740 1039.55 735.615 1039.55 726.846C1039.55 720.495 1042.27 707.845 1047.72 688.894C1048.93 684.56 1049.83 681.334 1050.44 679.218C1051.04 677 1052 675.891 1053.31 675.891C1055.13 675.891 1056.44 677.202 1057.24 679.822C1057.65 680.931 1057.85 682.342 1057.85 684.056C1057.85 685.669 1057.6 687.483 1057.09 689.499C1056.59 691.414 1055.53 695.144 1053.92 700.688C1049.58 715.606 1047.41 725.636 1047.41 730.777C1047.41 734.103 1048.42 735.766 1050.44 735.766C1052.96 735.766 1055.93 733.498 1059.36 728.962C1062.99 724.225 1065.96 719.638 1068.28 715.203C1070.6 710.768 1072.46 707.139 1073.87 704.317C1075.29 701.494 1076.7 698.571 1078.11 695.547C1079.52 692.422 1080.63 689.852 1081.43 687.836C1082.34 685.82 1083.2 683.905 1084 682.09C1084.81 680.175 1085.21 679.167 1085.21 679.066C1086.12 676.95 1087.13 675.891 1088.24 675.891C1090.05 675.891 1091.36 677.202 1092.17 679.822C1092.57 681.032 1092.77 682.494 1092.77 684.207C1092.77 685.921 1092.57 687.735 1092.17 689.65C1091.77 691.465 1091.11 694.186 1090.2 697.815C1089.3 701.444 1088.59 704.418 1088.09 706.736C1087.58 709.054 1086.98 711.877 1086.27 715.203C1085.26 720.747 1084.76 725.686 1084.76 730.021C1084.76 734.254 1085.92 736.371 1088.24 736.371ZM1114.63 740C1111.8 740 1110.39 737.833 1110.39 733.498C1110.39 731.18 1113.22 714.296 1118.86 682.846C1119.26 680.73 1120.17 679.671 1121.58 679.671C1123.4 679.671 1124.76 680.982 1125.66 683.602C1126.17 685.014 1126.42 686.576 1126.42 688.29C1126.42 689.902 1126.22 691.666 1125.82 693.582L1123.4 705.98H1124.15C1132.82 685.82 1140.78 675.74 1148.04 675.74C1152.07 675.74 1154.75 677.706 1156.06 681.637C1156.56 683.149 1156.81 684.913 1156.81 686.929C1156.81 688.844 1156.26 690.961 1155.15 693.279C1153.23 697.21 1150.36 699.176 1146.53 699.176C1145.72 699.176 1145.07 698.974 1144.56 698.571C1144.16 698.168 1143.91 697.614 1143.81 696.908C1144.62 696.908 1145.67 695.446 1146.98 692.523C1148.29 689.499 1149.05 686.727 1149.25 684.207C1149.45 681.687 1148.6 680.226 1146.68 679.822C1143.15 679.822 1138.97 684.409 1134.13 693.582C1129.29 702.754 1125.41 711.524 1122.49 719.89C1119.57 728.257 1117.85 733.7 1117.35 736.22C1116.84 738.74 1115.94 740 1114.63 740ZM1163.2 740C1160.38 740 1158.97 737.833 1158.97 733.498C1158.97 731.18 1161.79 714.296 1167.44 682.846C1167.74 680.73 1168.65 679.671 1170.16 679.671C1171.97 679.671 1173.33 680.982 1174.24 683.602C1174.74 685.014 1175 686.576 1175 688.29C1175 689.902 1174.79 691.666 1174.39 693.582L1171.97 705.678H1172.88C1181.95 685.316 1190.62 675.135 1198.89 675.135C1202.11 675.135 1204.58 676.143 1206.29 678.159C1208.01 680.074 1208.87 682.746 1208.87 686.173C1208.87 689.6 1207.5 697.009 1204.78 708.399C1202.06 719.79 1200.7 727.702 1200.7 732.138C1200.7 738.69 1201.91 741.966 1204.33 741.966C1204.33 742.671 1203.88 743.377 1202.97 744.082C1202.06 744.788 1201 745.141 1199.79 745.141C1193.95 745.141 1191.02 740.554 1191.02 731.382C1191.02 725.737 1192.54 717.219 1195.56 705.829C1198.68 694.338 1200.25 687.03 1200.25 683.905C1200.25 680.679 1198.99 679.066 1196.47 679.066C1192.84 679.066 1188.45 683.804 1183.31 693.279C1178.27 702.754 1174.19 711.826 1171.07 720.495C1168.04 729.063 1166.28 734.456 1165.77 736.674C1165.37 738.891 1164.51 740 1163.2 740ZM1230.71 717.925C1230.71 730.122 1235.05 736.22 1243.72 736.22C1246.94 736.22 1250.32 734.809 1253.85 731.986C1257.48 729.063 1260.75 725.586 1263.67 721.554C1270.13 712.28 1274.66 704.72 1277.28 698.874L1279.25 694.64H1283.33C1281.62 698.672 1279.1 703.662 1275.77 709.609C1272.44 715.455 1269.27 720.394 1266.24 724.426C1263.22 728.458 1259.64 732.138 1255.51 735.464C1251.38 738.69 1247.45 740.302 1243.72 740.302C1228.8 740.302 1221.34 731.936 1221.34 715.203C1221.34 707.442 1223.61 699.68 1228.14 691.918C1234.39 681.133 1242.1 675.74 1251.28 675.74C1257.73 675.74 1260.95 679.268 1260.95 686.324C1260.95 691.566 1258.94 697.009 1254.9 702.654C1249.26 710.314 1242.66 714.195 1235.1 714.296C1233.99 714.296 1233.28 713.792 1232.98 712.784L1232.83 712.179C1238.07 712.179 1243.06 708.752 1247.8 701.898C1252.64 694.942 1255.06 689.146 1255.06 684.51C1255.06 681.385 1253.85 679.822 1251.43 679.822C1246.08 679.822 1241.1 684.51 1236.46 693.884C1232.63 701.847 1230.71 709.861 1230.71 717.925ZM1270.7 800.329C1261.12 800.329 1256.33 795.44 1256.33 785.662C1256.33 779.917 1258.5 773.718 1262.84 767.065C1269.09 757.287 1277.45 750.836 1287.94 747.711C1291.67 746.602 1295.55 746.048 1299.58 746.048C1300.28 746.048 1300.64 746.754 1300.64 748.165C1300.64 749.576 1300.28 750.282 1299.58 750.282C1287.68 750.282 1277.7 754.969 1269.64 764.343C1263.69 771.399 1260.72 778.203 1260.72 784.755C1260.72 791.307 1263.24 795.087 1268.28 796.095L1270.7 796.246C1279.07 796.246 1285.77 792.718 1290.81 785.662C1294.34 780.622 1296.96 775.482 1298.67 770.24C1300.49 765.099 1301.8 760.966 1302.6 757.842C1303.51 754.717 1304.52 750.584 1305.63 745.443C1306.73 740.403 1307.59 736.119 1308.2 732.591C1308.9 729.063 1309.86 724.023 1311.07 717.471C1312.38 710.818 1313.39 705.577 1314.09 701.746H1313.19C1300.99 727.249 1290.96 740 1283.1 740C1276.34 740 1272.97 735.615 1272.97 726.846C1272.97 720.495 1275.69 707.845 1281.13 688.894C1282.34 684.56 1283.25 681.334 1283.85 679.218C1284.46 677 1285.42 675.891 1286.73 675.891C1288.54 675.891 1289.85 677.202 1290.66 679.822C1291.06 680.931 1291.26 682.342 1291.26 684.056C1291.26 685.669 1291.01 687.483 1290.51 689.499C1290 691.414 1288.94 695.144 1287.33 700.688C1283 715.606 1280.83 725.636 1280.83 730.777C1280.83 734.103 1281.84 735.766 1283.85 735.766C1286.27 735.766 1289.25 733.498 1292.77 728.962C1296.4 724.426 1299.93 718.882 1303.36 712.33C1309.61 700.436 1314.7 689.348 1318.63 679.066C1319.44 676.95 1320.44 675.891 1321.65 675.891C1323.37 675.891 1324.63 677.202 1325.43 679.822C1325.84 681.234 1326.04 682.796 1326.04 684.51C1326.04 686.223 1325.18 691.162 1323.47 699.327C1321.85 707.492 1320.19 715.304 1318.48 722.763C1316.87 730.222 1314.7 738.992 1311.98 749.072C1309.36 759.152 1306.84 766.662 1304.42 771.601C1302.1 776.54 1299.23 781.58 1295.8 786.721C1292.47 791.862 1288.74 795.39 1284.61 797.305C1280.48 799.321 1275.84 800.329 1270.7 800.329Z" fill="white"/>
</svg>
