<svg width="1066" height="601" viewBox="0 0 1066 601" fill="none" xmlns="http://www.w3.org/2000/svg">
    <path d="M250.897 4.37159C251.869 1.4572 253.733 0 256.487 0C259.405 0 261.754 1.21433 263.537 3.64299C265.483 5.90976 266.455 8.90511 266.455 12.6291C266.455 16.353 265.401 19.915 263.294 23.3151C261.349 26.5534 258.918 29.3058 256.001 31.5726C253.246 33.8393 249.356 36.0251 244.332 38.13C237.364 41.2063 226.992 44.6874 213.216 48.5732C209.326 62.8214 206.408 80.0648 204.464 100.304C202.681 120.381 200.817 137.138 198.872 150.577C196.928 164.016 194.74 176.564 192.309 188.221C189.878 199.717 186.312 210.97 181.612 221.98C176.912 233.151 171.402 242.623 165.081 250.394C158.761 258.167 150.576 264.401 140.528 269.096C130.642 273.791 119.297 276.139 106.494 276.139C81.0491 276.139 62.8975 267.152 52.0389 249.18C46.3666 239.79 43.5304 229.508 43.5304 218.337C43.5304 212.994 44.1786 207.488 45.4752 201.821C49.3648 185.307 57.4682 173.244 69.7854 165.635C77.0784 161.101 85.0197 158.834 93.6093 158.834C111.113 158.834 123.106 165.716 129.588 179.478C132.181 185.307 133.478 191.054 133.478 196.721C133.478 202.226 132.587 207.65 130.804 212.994C126.428 224.975 119.297 230.965 109.411 230.965C106.656 230.965 104.387 229.428 102.604 226.352C109.249 226.352 114.516 221.655 118.406 212.265C120.837 206.436 122.052 200.931 122.052 195.749C122.052 190.569 121.323 185.792 119.864 181.422C115.651 169.439 106.98 163.449 93.8524 163.449C78.456 163.449 66.3819 170.573 57.6303 184.82C51.6338 194.697 48.6355 205.221 48.6355 216.393C48.6355 220.28 49.0407 224.166 49.851 228.051C52.7682 245.214 61.4389 257.275 75.8629 264.239C83.4801 267.962 93.1231 269.824 104.792 269.824C116.461 269.824 127.238 266.02 137.125 258.409C147.011 250.799 154.628 241.166 159.976 229.508C165.486 218.012 170.267 204.089 174.319 187.736C178.533 171.22 181.612 155.515 183.557 140.619C189.229 99.9799 194.821 70.5121 200.331 52.2162C170.673 60.7975 150.495 70.3502 139.799 80.8744C135.423 85.4079 131.695 91.1557 128.616 98.1179C125.537 104.918 123.997 112.528 123.997 120.947C123.997 129.367 126.104 136.491 130.318 142.32C134.531 148.148 139.88 151.063 146.362 151.063C146.362 152.358 145.714 153.572 144.418 154.706C143.121 155.839 141.5 156.406 139.556 156.406C131.614 156.406 125.051 153.006 119.864 146.205C114.84 139.405 112.328 131.876 112.328 123.619C112.328 115.199 113.301 108.075 115.245 102.247C117.352 96.4178 119.864 91.3986 122.782 87.1889C125.861 82.8173 129.913 78.6886 134.937 74.8027C140.123 70.9169 144.985 67.6787 149.523 65.0881C154.061 62.4975 159.814 59.826 166.783 57.0735C177.155 53.1877 189.067 49.3018 202.519 45.416C210.137 24.2057 221.076 13.6005 235.338 13.6005C236.473 13.6005 237.444 14.0053 238.254 14.8148C239.227 15.4625 239.957 16.4339 240.443 17.7292C229.26 17.7292 220.914 25.6628 215.404 41.5301C229.665 37.3204 240.362 33.1917 247.493 29.1439C254.786 25.0962 258.432 19.915 258.432 13.6005C258.432 10.848 257.702 8.66222 256.244 7.04313C254.786 5.2621 253.003 4.37159 250.897 4.37159ZM247.338 166.85C247.338 183.85 251.877 192.351 260.953 192.351C267.111 192.351 272.864 188.545 278.213 180.935C288.423 166.687 294.663 147.905 296.932 124.59C291.259 122.162 287.289 118.195 285.019 112.69C283.561 109.29 282.833 106.456 282.833 104.19C282.833 101.761 283.156 99.656 283.804 97.875C285.264 93.5034 287.937 91.3176 291.827 91.3176C295.716 91.3176 298.634 93.8273 300.578 98.8465C302.686 103.704 303.739 109.937 303.739 117.547C303.739 118.033 303.739 118.6 303.739 119.247C305.683 119.895 308.519 120.219 312.248 120.219C316.137 120.219 319.541 118.681 322.457 115.604C325.375 112.528 326.834 109.694 326.834 107.104C326.834 106.456 327.239 106.052 328.049 105.89C328.86 105.566 329.588 105.566 330.237 105.89C331.048 106.213 331.453 106.699 331.453 107.347C331.453 112.042 329.427 116.495 325.375 120.704C321.484 124.914 316.217 127.019 309.574 127.019C307.953 127.019 305.845 126.857 303.252 126.533C302.281 137.543 299.93 148.472 296.203 159.32C292.637 170.006 287.613 179.316 281.13 187.249C274.647 195.022 267.679 198.907 260.223 198.907C246.123 198.907 237.454 191.379 234.212 176.32C233.402 171.949 232.997 167.497 232.997 162.962C232.997 152.763 235.346 141.834 240.045 130.176C246.205 114.957 253.821 105.485 262.897 101.761C267.597 100.142 270.838 99.8989 272.621 101.032C274.404 102.166 275.54 103.461 276.025 104.918C268.57 104.918 261.925 111.88 256.091 125.805C250.257 139.729 247.338 153.41 247.338 166.85ZM405.128 193.078C409.342 193.078 415.257 187.493 422.875 176.32C430.491 165.149 437.056 153.977 442.566 142.805L450.832 126.047H457.395C456.422 127.99 455.126 130.662 453.505 134.062C452.047 137.3 449.049 143.21 444.511 151.791C439.973 160.211 435.598 167.659 431.384 174.136C427.332 180.612 422.713 186.521 417.526 191.864C412.503 197.046 407.721 199.637 403.184 199.637C398.645 199.637 394.918 198.26 392 195.507C388.436 191.946 386.653 185.712 386.653 176.807C386.653 167.902 388.193 156.163 391.272 141.591H389.569C370.931 179.802 355.454 198.907 343.137 198.907C332.279 198.907 326.85 191.864 326.85 177.779C326.85 167.577 331.225 147.258 339.978 116.819C341.921 109.856 343.38 104.675 344.352 101.275C345.325 97.7131 346.865 95.9321 348.972 95.9321C351.888 95.9321 353.996 98.0369 355.292 102.247C355.94 104.028 356.265 106.294 356.265 109.047C356.265 111.637 355.86 114.552 355.049 117.79C354.239 120.866 352.538 126.857 349.944 135.762C342.975 159.725 339.49 175.835 339.49 184.093C339.49 189.435 341.111 192.106 344.352 192.106C348.404 192.106 353.186 188.463 358.696 181.177C364.531 173.569 369.311 166.201 373.039 159.077C376.766 151.953 379.765 146.124 382.033 141.591C384.302 137.057 386.572 132.362 388.841 127.505C391.109 122.485 392.892 118.357 394.188 115.119C395.647 111.88 397.025 108.804 398.322 105.89C399.618 102.813 400.266 101.194 400.266 101.032C401.724 97.6322 403.345 95.9321 405.128 95.9321C408.046 95.9321 410.152 98.0369 411.448 102.247C412.098 104.19 412.421 106.537 412.421 109.29C412.421 112.042 412.098 114.957 411.448 118.033C410.8 120.947 409.747 125.319 408.289 131.148C406.831 136.976 405.695 141.753 404.885 145.477C404.075 149.201 403.102 153.734 401.969 159.077C400.348 167.982 399.538 175.915 399.538 182.878C399.538 189.678 401.401 193.078 405.128 193.078ZM447.557 198.907C443.019 198.907 440.749 195.427 440.749 188.463C440.749 184.74 445.288 157.62 454.364 107.104C455.012 103.704 456.47 102.004 458.739 102.004C461.657 102.004 463.844 104.109 465.304 108.318C466.114 110.585 466.519 113.095 466.519 115.847C466.519 118.438 466.194 121.271 465.546 124.347L461.657 144.262H462.873C476.809 111.88 489.614 95.6892 501.282 95.6892C507.764 95.6892 512.059 98.8465 514.167 105.161C514.977 107.59 515.382 110.423 515.382 113.661C515.382 116.738 514.49 120.138 512.708 123.862C509.628 130.176 505.01 133.333 498.851 133.333C497.555 133.333 496.502 133.01 495.691 132.362C495.042 131.714 494.637 130.824 494.476 129.69C495.772 129.69 497.473 127.343 499.581 122.647C501.687 117.79 502.902 113.337 503.227 109.29C503.55 105.242 502.174 102.894 499.094 102.247C493.421 102.247 486.696 109.614 478.917 124.347C471.137 139.081 464.898 153.168 460.197 166.605C455.498 180.045 452.743 188.788 451.933 192.836C451.123 196.883 449.663 198.907 447.557 198.907ZM525.656 198.907C521.119 198.907 518.85 195.427 518.85 188.463C518.85 184.74 523.388 157.62 532.464 107.104C532.949 103.704 534.409 102.004 536.84 102.004C539.757 102.004 541.945 104.109 543.403 108.318C544.214 110.585 544.619 113.095 544.619 115.847C544.619 118.438 544.294 121.271 543.646 124.347L539.757 143.777H541.215C555.801 111.071 569.739 94.7178 583.03 94.7178C588.215 94.7178 592.186 96.3369 594.94 99.5751C597.696 102.651 599.074 106.942 599.074 112.447C599.074 117.952 596.886 129.852 592.509 148.148C588.134 166.445 585.946 179.154 585.946 186.279C585.946 196.803 587.892 202.065 591.781 202.065C591.781 203.198 591.051 204.332 589.593 205.464C588.134 206.598 586.432 207.165 584.488 207.165C575.087 207.165 570.387 199.797 570.387 185.065C570.387 175.997 572.818 162.315 577.68 144.02C582.705 125.562 585.216 113.823 585.216 108.804C585.216 103.623 583.19 101.032 579.139 101.032C573.305 101.032 566.255 108.642 557.989 123.862C549.886 139.081 543.323 153.653 538.298 167.577C533.436 181.34 530.6 190.002 529.79 193.565C529.142 197.126 527.764 198.907 525.656 198.907ZM634.93 199.15C622.127 199.15 615.724 189.517 615.724 170.248C615.724 159.077 618.641 146.853 624.476 133.576C632.579 115.604 642.871 103.866 655.351 98.3608C659.726 96.5797 664.102 95.6892 668.477 95.6892C673.016 95.6892 676.58 96.9845 679.174 99.5751C681.767 102.166 683.063 105.08 683.063 108.318C683.063 109.775 682.253 110.504 680.632 110.504C679.174 110.342 678.445 109.533 678.445 108.075C678.445 106.618 677.635 105.323 676.014 104.19C674.554 102.894 672.368 102.247 669.45 102.247C659.24 102.247 650.002 111.395 641.736 129.69C633.957 146.691 630.068 162.802 630.068 178.021C630.068 187.411 632.094 192.106 636.145 192.106C640.359 192.106 645.382 188.626 651.217 181.664C657.214 174.54 662.724 166.283 667.749 156.891C678.606 137.138 685.008 124.428 686.954 118.761C688.898 113.095 691.006 110.261 693.274 110.261C697.326 110.261 699.352 113.661 699.352 120.462C699.352 122.566 699.109 124.995 698.622 127.748C693.274 153.653 690.356 168.629 689.871 172.677C689.546 176.725 689.385 179.64 689.385 181.422C689.385 189.193 691.248 193.078 694.975 193.078C699.189 193.078 705.105 187.493 712.722 176.32C720.339 165.149 726.903 153.977 732.413 142.805L740.679 126.047H747.242C746.27 127.99 744.974 130.662 743.353 134.062C741.895 137.3 738.896 143.21 734.359 151.791C729.82 160.211 725.445 167.659 721.231 174.136C717.179 180.612 712.56 186.521 707.373 191.864C702.35 197.046 697.974 199.637 694.247 199.637C682.253 199.637 676.257 190.892 676.257 173.406C676.257 167.577 676.905 160.778 678.201 153.006H676.5C659.968 183.768 646.112 199.15 634.93 199.15ZM793.536 46.6303C799.369 31.4107 802.287 21.0484 802.287 15.5434C802.287 10.0385 800.91 7.12409 798.154 6.80025C790.538 6.80025 782.597 19.0245 774.331 43.473C766.227 67.7596 759.825 93.0177 755.125 119.247C750.588 145.315 748.318 163.772 748.318 174.621C748.318 192.916 752.857 202.065 761.933 202.065C761.933 203.198 761.203 204.332 759.745 205.464C758.286 206.598 756.584 207.165 754.64 207.165C741.35 207.165 734.704 195.264 734.704 171.463C734.704 162.72 736.325 149.363 739.567 131.391C742.808 113.257 747.022 94.313 752.209 74.5599C757.394 54.8068 764.12 37.6442 772.385 23.0723C780.651 8.3384 789.079 0.971463 797.668 0.971463C804.476 0.971463 807.878 5.2621 807.878 13.8434C807.878 20.3198 805.852 29.3868 801.8 41.0444C794.022 63.7119 782.839 86.3794 768.253 109.047C764.364 115.038 760.878 119.895 757.799 123.619C756.989 124.59 756.584 124.266 756.584 122.647C756.421 119.571 757.151 116.9 758.772 114.633C772.062 94.7178 783.65 72.0503 793.536 46.6303ZM823.879 53.4305C827.606 53.4305 829.469 55.9402 829.469 60.9594C829.469 65.9786 827.038 70.0264 822.176 73.1027C819.745 74.7218 817.639 75.5313 815.856 75.5313C813.262 75.5313 811.724 74.7218 811.237 73.1027L810.994 72.3741C812.452 72.3741 813.507 70.8359 814.155 67.7596C814.803 64.5214 815.775 61.3642 817.071 58.2879C818.53 55.0496 820.8 53.4305 823.879 53.4305ZM808.32 193.078C812.534 193.078 818.449 187.493 826.067 176.32C833.683 165.149 840.248 153.977 845.758 142.805L854.024 126.047H860.587C859.614 127.99 858.318 130.662 856.698 134.062C855.239 137.3 852.241 143.21 847.702 151.791C843.165 160.211 838.788 167.659 834.576 174.136C830.524 180.612 825.905 186.521 820.718 191.864C815.693 197.046 811.319 199.637 807.59 199.637C795.597 199.637 789.602 191.864 789.602 176.32C789.602 164.664 792.924 145.72 799.569 119.49C800.217 116.738 800.702 114.633 801.027 113.176C801.512 111.718 802 109.856 802.485 107.59C802.972 105.161 803.458 102.975 803.943 101.032C804.754 97.6322 806.214 95.9321 808.32 95.9321C811.237 95.9321 813.344 98.0369 814.64 102.247C815.288 104.19 815.613 106.537 815.613 109.29C815.613 112.042 815.288 114.957 814.64 118.033C813.992 120.947 812.939 125.319 811.481 131.148C810.021 136.976 808.888 141.753 808.077 145.477C807.267 149.201 806.375 153.734 805.403 159.077C803.62 167.982 802.728 175.915 802.728 182.878C802.728 189.678 804.593 193.078 808.32 193.078ZM850.011 198.907C845.472 198.907 843.203 195.427 843.203 188.463C843.203 184.74 847.742 157.62 856.816 107.104C857.304 103.704 858.762 102.004 861.193 102.004C864.11 102.004 866.298 104.109 867.756 108.318C868.566 110.585 868.972 113.095 868.972 115.847C868.972 118.438 868.648 121.271 868.001 124.347L864.11 143.777H865.569C880.156 111.071 894.092 94.7178 907.382 94.7178C912.569 94.7178 916.539 96.3369 919.295 99.5751C922.049 102.651 923.427 106.942 923.427 112.447C923.427 117.952 921.239 129.852 916.864 148.148C912.487 166.445 910.299 179.154 910.299 186.279C910.299 196.803 912.244 202.065 916.134 202.065C916.134 203.198 915.405 204.332 913.945 205.464C912.487 206.598 910.786 207.165 908.841 207.165C899.441 207.165 894.742 199.797 894.742 185.065C894.742 175.997 897.173 162.315 902.035 144.02C907.058 125.562 909.571 113.823 909.571 108.804C909.571 103.623 907.545 101.032 903.493 101.032C897.658 101.032 890.608 108.642 882.342 123.862C874.239 139.081 867.676 153.653 862.651 167.577C857.789 181.34 854.953 190.002 854.143 193.565C853.495 197.126 852.117 198.907 850.011 198.907ZM1017.63 110.261C1021.68 110.261 1023.7 113.661 1023.7 120.462C1023.7 125.319 1021.03 139.405 1015.68 162.72C1010.33 185.874 1005.55 205.059 1001.34 220.28C997.126 235.499 993.154 246.751 989.428 254.037C985.701 261.485 981.162 268.934 975.814 276.382C970.627 283.83 964.875 288.93 958.554 291.681C952.232 294.435 944.939 295.811 936.675 295.811C921.279 295.811 913.581 287.958 913.581 272.252C913.581 263.024 917.065 253.067 924.033 242.381C934.082 226.675 947.533 216.313 964.387 211.293C970.385 209.512 976.625 208.622 983.107 208.622C984.241 208.622 984.808 209.756 984.808 212.022C984.808 214.289 984.241 215.423 983.107 215.423C963.982 215.423 947.938 222.951 934.973 238.008C925.411 249.342 920.629 260.271 920.629 270.795C920.629 281.32 924.681 287.391 932.784 289.01L936.675 289.253C949.964 289.253 960.498 283.748 968.278 272.739C976.219 261.567 982.459 247.481 986.997 230.48C991.534 213.317 997.369 186.44 1004.5 149.848H1002.56C985.051 182.716 970.627 199.15 959.283 199.15C946.48 199.15 940.077 189.517 940.077 170.248C940.077 159.077 942.995 146.853 948.83 133.576C956.934 115.604 967.224 103.866 979.704 98.3608C984.08 96.5797 988.455 95.6892 992.831 95.6892C997.369 95.6892 1000.93 96.9845 1003.53 99.5751C1006.12 102.166 1007.42 105.08 1007.42 108.318C1007.42 109.775 1006.61 110.504 1004.99 110.504C1003.53 110.342 1002.8 109.533 1002.8 108.075C1002.8 106.618 1001.99 105.323 1000.37 104.19C998.909 102.894 996.721 102.247 993.804 102.247C983.593 102.247 974.356 111.395 966.09 129.69C958.31 146.691 954.421 162.802 954.421 178.021C954.421 187.411 956.446 192.106 960.498 192.106C965.847 192.106 972.816 185.792 981.405 173.164C994.37 154.058 1004.5 135.357 1011.79 117.061C1013.74 112.528 1015.68 110.261 1017.63 110.261ZM6.80594 504.096C2.26868 504.096 0 500.615 0 493.652C0 489.929 4.53723 462.809 13.6133 412.293C14.0989 408.893 15.5572 407.193 17.9882 407.193C20.9064 407.193 23.0947 409.297 24.553 413.507C25.3633 415.774 25.7685 418.283 25.7685 421.036C25.7685 423.627 25.4437 426.46 24.7957 429.536L21.1492 447.994H22.6076C36.8705 415.936 50.6462 399.907 63.9348 399.907C68.4737 399.907 72.0383 401.526 74.6317 404.764C77.3875 408.002 78.7638 411.888 78.7638 416.421C78.7638 424.841 77.4679 435.365 74.8744 447.994H75.8471C89.6229 418.041 103.156 403.064 116.444 403.064C120.821 403.064 124.387 404.683 127.141 407.921C129.897 411.159 131.275 415.45 131.275 420.793C131.275 426.136 129.167 437.47 124.953 454.794C120.901 472.119 118.876 484.342 118.876 491.468C118.876 501.992 120.821 507.254 124.71 507.254C124.71 508.386 123.982 509.52 122.522 510.653C121.064 511.787 119.363 512.354 117.417 512.354C108.018 512.354 103.318 504.986 103.318 490.253C103.318 481.024 105.667 467.747 110.367 450.423C115.068 432.936 117.417 421.765 117.417 416.907C117.417 411.888 115.797 409.378 112.555 409.378C106.56 409.378 99.5094 416.664 91.406 431.236C83.465 445.646 77.0626 459.49 72.2006 472.766C67.501 486.043 64.7452 494.624 63.9348 498.51C63.1245 502.234 61.6662 504.096 59.56 504.096C55.0211 504.096 52.7524 500.615 52.7524 493.652C52.7524 491.063 54.1304 481.914 56.8845 466.209C62.2338 437.389 64.9075 420.226 64.9075 414.721C64.9075 409.055 63.2869 406.221 60.0455 406.221C55.669 406.221 50.5642 410.755 44.7295 419.822C38.8963 428.727 33.6291 439.089 28.9278 450.908C18.7182 475.842 12.7211 491.953 10.9396 499.239C10.29 502.477 8.91378 504.096 6.80594 504.096ZM146.7 601C131.304 601 123.606 593.147 123.606 577.441C123.606 568.213 127.09 558.256 134.06 547.569C144.107 531.863 157.56 521.502 174.414 516.482C180.41 514.701 186.65 513.811 193.133 513.811C194.268 513.811 194.835 514.945 194.835 517.211C194.835 519.478 194.268 520.612 193.133 520.612C174.009 520.612 157.965 528.14 144.999 543.197C135.436 554.531 130.656 565.46 130.656 575.984C130.656 586.508 134.708 592.58 142.811 594.199L146.7 594.442C160.151 594.442 170.93 588.775 179.034 577.441C184.706 569.346 188.918 561.089 191.674 552.669C194.591 544.412 196.699 537.773 197.995 532.755C199.453 527.735 201.074 521.097 202.857 512.839C204.64 504.743 206.018 497.862 206.99 492.195C208.124 486.528 209.664 478.433 211.608 467.909C213.716 457.223 215.336 448.804 216.47 442.651H215.012C195.401 483.615 179.276 504.096 166.634 504.096C155.777 504.096 150.347 497.053 150.347 482.967C150.347 472.766 154.723 452.447 163.475 422.007C165.419 415.045 166.878 409.864 167.85 406.464C168.822 402.902 170.363 401.121 172.469 401.121C175.387 401.121 177.493 403.226 178.789 407.435C179.439 409.216 179.762 411.483 179.762 414.236C179.762 416.826 179.357 419.741 178.546 422.979C177.736 426.055 176.035 432.046 173.442 440.951C166.473 464.914 162.988 481.024 162.988 489.282C162.988 494.624 164.608 497.295 167.85 497.295C171.74 497.295 176.521 493.652 182.193 486.366C188.028 479.08 193.7 470.175 199.21 459.652C209.259 440.546 217.443 422.736 223.763 406.221C225.061 402.821 226.681 401.121 228.625 401.121C231.381 401.121 233.407 403.226 234.703 407.435C235.352 409.702 235.675 412.212 235.675 414.964C235.675 417.717 234.297 425.65 231.543 438.765C228.95 451.88 226.276 464.428 223.52 476.409C220.927 488.39 217.443 502.477 213.068 518.668C208.854 534.859 204.802 546.922 200.913 554.855C197.184 562.789 192.565 570.884 187.055 579.142C181.707 587.4 175.71 593.067 169.065 596.143C162.422 599.381 154.966 601 146.7 601ZM529.427 309.56C530.399 306.646 532.263 305.189 535.019 305.189C537.935 305.189 540.286 306.403 542.061 308.832C544.006 311.099 544.987 314.094 544.987 317.818C544.987 321.542 543.926 325.104 541.82 328.504C539.881 331.742 537.45 334.495 534.531 336.761C531.777 339.028 527.888 341.214 522.863 343.319C515.894 346.395 505.522 349.876 491.746 353.762C487.856 368.01 484.94 385.254 482.994 405.493C481.211 425.569 479.348 442.327 477.402 455.766C475.459 469.205 473.27 481.753 470.839 493.41C468.408 504.906 464.842 516.159 460.142 527.168C455.443 538.34 449.933 547.812 443.613 555.583C437.291 563.356 429.107 569.59 419.058 574.285C409.173 578.98 397.828 581.328 385.024 581.328C359.58 581.328 341.428 572.341 330.57 554.369C324.898 544.979 322.062 534.697 322.062 523.525C322.062 518.183 322.71 512.677 324.005 507.01C327.895 490.496 335.998 478.433 348.316 470.824C355.609 466.29 363.55 464.023 372.14 464.023C389.643 464.023 401.636 470.904 408.118 484.667C410.712 490.496 412.009 496.243 412.009 501.91C412.009 507.415 411.117 512.839 409.334 518.183C404.959 530.164 397.828 536.154 387.942 536.154C385.186 536.154 382.918 534.617 381.134 531.541C387.78 531.541 393.047 526.844 396.936 517.454C399.367 511.625 400.583 506.12 400.583 500.938C400.583 495.758 399.854 490.981 398.394 486.61C394.182 474.628 385.511 468.638 372.383 468.638C356.987 468.638 344.912 475.762 336.161 490.009C330.165 499.886 327.166 510.41 327.166 521.582C327.166 525.469 327.572 529.355 328.382 533.24C331.299 550.403 339.97 562.464 354.393 569.427C362.011 573.151 371.653 575.012 383.323 575.012C394.992 575.012 405.769 571.209 415.656 563.598C425.541 555.988 433.159 546.355 438.506 534.697C444.018 523.201 448.798 509.278 452.85 492.925C457.064 476.409 460.143 460.704 462.088 445.808C467.76 405.169 473.351 375.701 478.862 357.405C449.203 365.986 429.026 375.539 418.33 386.063C413.953 390.597 410.226 396.345 407.147 403.307C404.067 410.107 402.528 417.717 402.528 426.136C402.528 434.555 404.634 441.68 408.848 447.508C413.062 453.337 418.41 456.251 424.893 456.251C424.893 457.547 424.245 458.761 422.949 459.894C421.651 461.028 420.031 461.595 418.087 461.595C410.144 461.595 403.581 458.194 398.394 451.394C393.372 444.594 390.859 437.065 390.859 428.808C390.859 420.388 391.831 413.264 393.777 407.435C395.883 401.607 398.394 396.587 401.313 392.378C404.392 388.006 408.443 383.877 413.468 379.992C418.653 376.106 423.515 372.868 428.054 370.277C432.591 367.686 438.345 365.015 445.314 362.262C455.686 358.376 467.598 354.491 481.049 350.605C488.667 329.394 499.606 318.789 513.868 318.789C515.003 318.789 515.976 319.194 516.786 320.004C517.759 320.651 518.487 321.623 518.974 322.918C507.79 322.918 499.444 330.852 493.934 346.719C508.195 342.509 518.892 338.381 526.023 334.333C533.316 330.285 536.962 325.104 536.962 318.789C536.962 316.037 536.234 313.851 534.776 312.232C533.316 310.451 531.534 309.56 529.427 309.56ZM525.87 472.038C525.87 489.039 530.407 497.539 539.483 497.539C545.646 497.539 551.402 493.734 556.74 486.124C566.95 471.876 573.188 453.094 575.455 429.779C569.796 427.35 565.824 423.384 563.557 417.879C562.094 414.479 561.355 411.645 561.355 409.378C561.355 406.95 561.692 404.845 562.335 403.064C563.799 398.692 566.467 396.506 570.358 396.506C574.249 396.506 577.159 399.016 579.105 404.035C581.211 408.893 582.272 415.126 582.272 422.736C582.272 423.222 582.272 423.788 582.272 424.436C584.218 425.084 587.048 425.408 590.778 425.408C594.669 425.408 598.077 423.869 600.987 420.793C603.897 417.717 605.361 414.883 605.361 412.293C605.361 411.645 605.763 411.24 606.583 411.078C607.387 410.755 608.126 410.755 608.769 411.078C609.573 411.402 609.975 411.888 609.975 412.536C609.975 417.231 607.949 421.684 603.897 425.893C600.023 430.103 594.749 432.208 588.109 432.208C586.485 432.208 584.379 432.046 581.79 431.722C580.809 442.732 578.462 453.661 574.732 464.509C571.162 475.195 566.146 484.505 559.666 492.438C553.171 500.211 546.209 504.096 538.753 504.096C524.655 504.096 515.984 496.568 512.742 481.509C511.932 477.138 511.527 472.686 511.527 468.151C511.527 457.952 513.876 447.023 518.577 435.365C524.735 420.145 532.353 410.674 541.427 406.95C546.129 405.331 549.376 405.088 551.145 406.221C552.93 407.354 554.071 408.65 554.554 410.107C547.093 410.107 540.456 417.069 534.621 430.993C528.787 444.918 525.87 458.599 525.87 472.038ZM683.661 498.267C687.874 498.267 693.791 492.682 701.412 481.509C709.017 470.337 715.593 459.166 721.091 447.994L729.355 431.236H735.931C734.951 433.179 733.664 435.851 732.04 439.251C730.577 442.489 727.587 448.399 723.037 456.98C718.503 465.399 714.129 472.848 709.917 479.324C705.865 485.801 701.251 491.71 696.057 497.053C691.025 502.234 686.25 504.825 681.716 504.825C677.182 504.825 673.452 503.449 670.525 500.696C666.972 497.135 665.187 490.901 665.187 481.996C665.187 473.091 666.715 461.352 669.802 446.78H668.098C649.463 484.991 633.98 504.096 621.664 504.096C610.811 504.096 605.377 497.053 605.377 482.967C605.377 472.766 609.75 452.447 618.512 422.007C620.458 415.045 621.905 409.864 622.886 406.464C623.85 402.902 625.394 401.121 627.5 401.121C630.427 401.121 632.533 403.226 633.819 407.435C634.478 409.216 634.8 411.483 634.8 414.236C634.8 416.826 634.398 419.741 633.578 422.979C632.774 426.055 631.07 432.046 628.481 440.951C621.503 464.914 618.014 481.024 618.014 489.282C618.014 494.624 619.638 497.295 622.886 497.295C626.937 497.295 631.713 493.652 637.227 486.366C643.064 478.757 647.839 471.39 651.569 464.266C655.299 457.142 658.29 451.313 660.557 446.78C662.84 442.246 665.107 437.551 667.374 432.694C669.641 427.674 671.426 423.546 672.712 420.307C674.175 417.069 675.558 413.993 676.844 411.078C678.146 408.002 678.79 406.383 678.79 406.221C680.253 402.821 681.877 401.121 683.661 401.121C686.571 401.121 688.678 403.226 689.98 407.435C690.623 409.378 690.945 411.726 690.945 414.479C690.945 417.231 690.623 420.145 689.98 423.222C689.337 426.136 688.276 430.508 686.812 436.337C685.365 442.165 684.224 446.942 683.42 450.666C682.6 454.39 681.635 458.923 680.494 464.266C678.87 473.171 678.066 481.104 678.066 488.067C678.066 494.867 679.931 498.267 683.661 498.267ZM726.092 504.096C721.541 504.096 719.274 500.615 719.274 493.652C719.274 489.929 723.824 462.809 732.893 412.293C733.536 408.893 734.999 407.193 737.266 407.193C740.192 407.193 742.379 409.297 743.826 413.507C744.646 415.774 745.048 418.283 745.048 421.036C745.048 423.627 744.726 426.46 744.083 429.536L740.192 449.451H741.398C755.338 417.069 768.136 400.878 779.809 400.878C786.288 400.878 790.597 404.035 792.703 410.35C793.507 412.778 793.909 415.612 793.909 418.85C793.909 421.926 793.025 425.327 791.24 429.051C788.153 435.365 783.539 438.522 777.381 438.522C776.079 438.522 775.034 438.198 774.214 437.551C773.57 436.903 773.168 436.013 773.008 434.879C774.31 434.879 775.998 432.532 778.104 427.836C780.211 422.979 781.433 418.526 781.754 414.479C782.076 410.431 780.709 408.083 777.622 407.435C771.947 407.435 765.226 414.802 757.444 429.536C749.662 444.27 743.424 458.356 738.729 471.794C734.034 485.234 731.269 493.977 730.465 498.024C729.645 502.072 728.198 504.096 726.092 504.096ZM804.183 504.096C799.649 504.096 797.382 500.615 797.382 493.652C797.382 489.929 801.916 462.809 811 412.293C811.483 408.893 812.946 407.193 815.374 407.193C818.284 407.193 820.47 409.297 821.933 413.507C822.737 415.774 823.155 418.283 823.155 421.036C823.155 423.627 822.818 426.46 822.175 429.536L818.284 448.966H819.747C834.33 416.26 848.27 399.907 861.566 399.907C866.743 399.907 870.715 401.526 873.464 404.764C876.229 407.84 877.612 412.131 877.612 417.636C877.612 423.141 875.409 435.041 871.036 453.337C866.663 471.634 864.476 484.342 864.476 491.468C864.476 501.992 866.422 507.254 870.313 507.254C870.313 508.386 869.589 509.52 868.126 510.653C866.663 511.787 864.959 512.354 863.013 512.354C853.624 512.354 848.913 504.986 848.913 490.253C848.913 481.186 851.357 467.504 856.212 449.208C861.229 430.751 863.753 419.012 863.753 413.993C863.753 408.812 861.727 406.221 857.675 406.221C851.839 406.221 844.781 413.831 836.516 429.051C828.413 444.27 821.853 458.842 816.837 472.766C811.965 486.529 809.135 495.191 808.315 498.754C807.672 502.315 806.289 504.096 804.183 504.096ZM912.727 468.638C912.727 488.23 919.705 498.024 933.644 498.024C938.822 498.024 944.256 495.758 949.932 491.224C955.768 486.528 961.026 480.944 965.721 474.467C976.107 459.571 983.39 447.427 987.603 438.037L990.77 431.236H997.33C994.581 437.713 990.529 445.727 985.175 455.28C979.821 464.671 974.724 472.604 969.853 479.08C964.997 485.557 959.241 491.468 952.601 496.81C945.96 501.992 939.642 504.581 933.644 504.581C909.656 504.581 897.662 491.143 897.662 464.266C897.662 451.799 901.311 439.332 908.595 426.865C918.644 409.54 931.04 400.878 945.8 400.878C956.17 400.878 961.347 406.545 961.347 417.879C961.347 426.298 958.116 435.041 951.62 444.108C942.552 456.413 931.94 462.647 919.785 462.809C918 462.809 916.859 461.999 916.377 460.38L916.135 459.409C924.56 459.409 932.583 453.904 940.204 442.894C947.986 431.722 951.877 422.412 951.877 414.964C951.877 409.945 949.932 407.435 946.041 407.435C937.439 407.435 929.432 414.964 921.972 430.022C915.814 442.813 912.727 455.685 912.727 468.638ZM977.023 601C961.62 601 953.919 593.147 953.919 577.441C953.919 568.213 957.408 558.256 964.386 547.569C974.435 531.863 987.876 521.502 1004.74 516.482C1010.74 514.701 1016.98 513.811 1023.46 513.811C1024.58 513.811 1025.16 514.945 1025.16 517.211C1025.16 519.478 1024.58 520.612 1023.46 520.612C1004.32 520.612 988.278 528.14 975.319 543.197C965.753 554.531 960.977 565.46 960.977 575.984C960.977 586.508 965.029 592.58 973.133 594.199L977.023 594.442C990.481 594.442 1001.25 588.775 1009.36 577.441C1015.03 569.346 1019.24 561.089 1021.99 552.669C1024.92 544.412 1027.03 537.773 1028.31 532.755C1029.78 527.735 1031.4 521.097 1033.18 512.839C1034.95 504.743 1036.34 497.862 1037.32 492.195C1038.44 486.528 1039.99 478.433 1041.93 467.909C1044.04 457.223 1045.66 448.804 1046.79 442.651H1045.34C1025.72 483.615 1009.6 504.096 996.96 504.096C986.091 504.096 980.673 497.053 980.673 482.967C980.673 472.766 985.046 452.447 993.793 422.007C995.738 415.045 997.201 409.864 998.166 406.464C999.147 402.902 1000.69 401.121 1002.8 401.121C1005.71 401.121 1007.81 403.226 1009.12 407.435C1009.76 409.216 1010.08 411.483 1010.08 414.236C1010.08 416.826 1009.68 419.741 1008.87 422.979C1008.05 426.055 1006.35 432.046 1003.76 440.951C996.799 464.914 993.311 481.024 993.311 489.282C993.311 494.624 994.934 497.295 998.166 497.295C1002.06 497.295 1006.85 493.652 1012.51 486.366C1018.34 479.08 1024.02 470.175 1029.53 459.652C1039.58 440.546 1047.77 422.736 1054.09 406.221C1055.39 402.821 1057 401.121 1058.94 401.121C1061.71 401.121 1063.73 403.226 1065.02 407.435C1065.68 409.702 1066 412.212 1066 414.964C1066 417.717 1064.62 425.65 1061.87 438.765C1059.26 451.88 1056.59 464.428 1053.84 476.409C1051.26 488.39 1047.77 502.477 1043.39 518.668C1039.18 534.859 1035.13 546.922 1031.24 554.855C1027.51 562.789 1022.89 570.884 1017.38 579.142C1012.03 587.4 1006.03 593.067 999.388 596.143C992.748 599.381 985.287 601 977.023 601Z" fill="#313131"/>
</svg>
